<svg xmlns="http://www.w3.org/2000/svg" viewBox="0 0 29.21 36.84"><defs><style>.cls-1{fill:#ba2a17;}</style></defs><title>chile2</title><g id="Capa_2" data-name="Capa 2"><g id="Capa_1-2" data-name="Capa 1"><path class="cls-1" d="M25.82,0A1.62,1.62,0,0,0,24,1.35a52.11,52.11,0,0,1-2.51,9.34,7.84,7.84,0,0,0-5.57,1.11c-.22.14-.45.31-.68.48a13.75,13.75,0,0,0-2.16,2.16.49.49,0,0,0,.19.76,5.8,5.8,0,0,0,.62.24,7.64,7.64,0,0,0-1.2,3.37A15,15,0,0,1,11,24.36a16,16,0,0,1-9.72,8,1.75,1.75,0,0,0-1,.72,1.81,1.81,0,0,0,.82,2.68c4.81,2,13.47,2.34,24.69-10.92a7.6,7.6,0,0,0,1.93-3.66,5.54,5.54,0,0,0,.87.21.5.5,0,0,0,.58-.45A11.17,11.17,0,0,0,29,18a10.31,10.31,0,0,0-1.68-3.88,8.32,8.32,0,0,0-2.8-2.44,54.6,54.6,0,0,0,2.64-9.86A1.61,1.61,0,0,0,25.82,0Z"/></g></g></svg>