<svg xmlns="http://www.w3.org/2000/svg" xmlns:xlink="http://www.w3.org/1999/xlink" viewBox="0 0 140.56 140.56"><defs><style>.cls-1{fill:none;}.cls-2{fill:#ba2a17;stroke:#000;stroke-miterlimit:10;stroke-width:3.48px;}.cls-3{fill:#fab659;}.cls-4{fill:#f59e18;}.cls-5{fill:#fbe29f;}.cls-6{clip-path:url(#clip-path);}</style><clipPath id="clip-path"><rect class="cls-1" x="13.81" y="18.76" width="112.94" height="100.34"/></clipPath></defs><title>icono-menu</title><g id="Capa_2" data-name="Capa 2"><g id="Capa_1-2" data-name="Capa 1"><circle class="cls-2" cx="70.28" cy="70.28" r="68.54"/><path class="cls-3" d="M122.31,45.16l-48.85-24a5.09,5.09,0,0,0-7.33,4.7l1.56,56.62a6,6,0,0,0,9.57,4.71l45.79-33.33a5.09,5.09,0,0,0-.74-8.68Z"/><path class="cls-4" d="M77.26,87.17l2.77-2L70.18,53.4a11.61,11.61,0,0,0-3.44-5.33l1,34.39a6,6,0,0,0,9.57,4.71Z"/><path class="cls-3" d="M55.4,53.28,16.91,91.76A5.09,5.09,0,0,0,19,100.22L73.09,117a6,6,0,0,0,7.55-7.54L63.86,55.37a5.09,5.09,0,0,0-8.46-2.09Z"/><path class="cls-4" d="M77.51,112.59,23.42,95.81a5.09,5.09,0,0,1-2.1-8.46l-4.41,4.41A5.09,5.09,0,0,0,19,100.22L73.09,117a6,6,0,0,0,7.64-4.32,6,6,0,0,1-3.22-.09Z"/><path class="cls-5" d="M104.9,44.11a5,5,0,1,0,2.26,6.63,5,5,0,0,0-2.26-6.63Z"/><path class="cls-5" d="M82.16,37.53a3.55,3.55,0,1,0,1.62,4.75,3.55,3.55,0,0,0-1.62-4.75Z"/><path class="cls-5" d="M84,61.12a3.54,3.54,0,1,0,1.62,4.75A3.53,3.53,0,0,0,84,61.12Z"/><path class="cls-5" d="M55.8,69.41a5,5,0,1,0,0,7,4.95,4.95,0,0,0,0-7Z"/><path class="cls-5" d="M35,89.53a3.55,3.55,0,1,0,0,5,3.54,3.54,0,0,0,0-5Z"/><path class="cls-5" d="M66.1,100.7a3.54,3.54,0,1,0,0,5,3.53,3.53,0,0,0,0-5Z"/><path d="M43.55,97.92a1.67,1.67,0,0,0,0,2.34l1.63,1.63a1.66,1.66,0,1,0,2.35-2.34l-1.64-1.63a1.65,1.65,0,0,0-2.34,0Z"/><path d="M64.37,84.35a1.64,1.64,0,0,0,1.17-2.81l-1.63-1.63a1.65,1.65,0,1,0-2.34,2.34l1.63,1.63a1.66,1.66,0,0,0,1.17.47Z"/><path d="M57.36,87.73a1.66,1.66,0,0,0-1.54,1.76,2.6,2.6,0,0,1-2.68,2.68,1.66,1.66,0,1,0-.23,3.31,5.87,5.87,0,0,0,4.49-1.72,5.77,5.77,0,0,0,1.72-4.49,1.64,1.64,0,0,0-1.76-1.54Z"/><path d="M52.3,66.35a6.59,6.59,0,0,0-4.68,1.88,6.77,6.77,0,1,0,4.68-1.88Zm2.33,8.89a3.3,3.3,0,1,1,0-4.67,3.3,3.3,0,0,1,0,4.67Z"/><path d="M28.84,95.7a5.2,5.2,0,1,0,0-7.35,5.23,5.23,0,0,0,0,7.35Zm2.34-5a1.92,1.92,0,0,1,2.67,0,1.89,1.89,0,1,1-2.67,0Z"/><path d="M59.92,106.87a5.2,5.2,0,1,0,0-7.35,5.25,5.25,0,0,0,0,7.35Zm2.35-5a1.89,1.89,0,1,1,0,2.67,1.9,1.9,0,0,1,0-2.67Z"/><path d="M109,46.41a6.68,6.68,0,0,0-6.25-4.48,6.57,6.57,0,0,0-5.94,3.7,6.69,6.69,0,0,0,5.93,9.53A6.61,6.61,0,0,0,109,46.41ZM105.68,50a3.28,3.28,0,0,1-3,1.85,3.33,3.33,0,0,1-3-4.76,3.29,3.29,0,0,1,3-1.85,3.33,3.33,0,0,1,3,4.76Z"/><path d="M80.6,45.9a5.2,5.2,0,1,0,0-10.4,5.19,5.19,0,0,0-4.67,2.91A5.27,5.27,0,0,0,80.6,45.9Zm-1.69-6a1.89,1.89,0,0,1,3.39,1.67,1.88,1.88,0,0,1-1.7,1.05,1.91,1.91,0,0,1-1.69-2.72Z"/><g class="cls-6"><path d="M80.12,69a5.25,5.25,0,0,0,7-2.37,5.15,5.15,0,0,0,.26-4A5.2,5.2,0,1,0,80.12,69Zm.6-5.5a1.87,1.87,0,0,1,1.7-1.06,1.9,1.9,0,0,1,1.69,2.72,1.87,1.87,0,0,1-1.7,1.06,1.91,1.91,0,0,1-1.69-2.72Z"/><path d="M18.51,101.8,72.6,118.58A7.76,7.76,0,0,0,82.22,109l-6-19.41a7.73,7.73,0,0,0,2-1L106,68.32A1.65,1.65,0,1,0,104,65.65L76.3,85.82a4.66,4.66,0,0,1-1.08.57L68.9,66s-1.11-40.09-1.11-40.2a3.47,3.47,0,0,1,4.95-3.18l48.84,24a3.47,3.47,0,0,1,.51,5.86l-12.78,9.3a1.66,1.66,0,0,0,2,2.68L124,55.17a6.81,6.81,0,0,0-1-11.51l-48.84-24a6.81,6.81,0,0,0-9.72,6.24l.78,28.48a6.74,6.74,0,0,0-11-2.26L32.05,74.28a1.65,1.65,0,0,0,2.34,2.34L56.57,54.44a3.47,3.47,0,0,1,5.71,1.41l16.78,54.09a4.41,4.41,0,0,1-5.47,5.47L19.5,98.63a3.46,3.46,0,0,1-1.42-5.7L30,81a1.65,1.65,0,1,0-2.34-2.34L15.74,90.58a6.82,6.82,0,0,0,2.77,11.22Z"/></g></g></g></svg>