<svg xmlns="http://www.w3.org/2000/svg" xmlns:xlink="http://www.w3.org/1999/xlink" viewBox="0 0 140.56 140.56"><defs><style>.cls-1{fill:none;}.cls-2{fill:#9ad14b;stroke:#000;stroke-miterlimit:10;stroke-width:3.48px;}.cls-3{fill:#b3e8f0;}.cls-4{fill:#64d1e1;}.cls-5{fill:#fab659;}.cls-6{clip-path:url(#clip-path);}.cls-7{fill:#f59e18;}.cls-8{fill:#36d39a;}.cls-9{fill:#00b661;}.cls-10{fill:#fbe29f;}</style><clipPath id="clip-path"><rect class="cls-1" x="31.56" y="24.42" width="88.41" height="87.55"/></clipPath></defs><title>icono-bebidas</title><g id="Capa_2" data-name="Capa 2"><g id="Capa_1-2" data-name="Capa 1"><circle class="cls-2" cx="70.28" cy="70.28" r="68.54"/><path class="cls-3" d="M85.34,25.89H38.65a5.81,5.81,0,0,0-5.77,6.39l7.63,72.07a7,7,0,0,0,6.93,6.26H76.56a7,7,0,0,0,6.92-6.26l7.63-72.07a5.8,5.8,0,0,0-5.77-6.39Z"/><path class="cls-4" d="M45.69,104.35,38.06,32.28a5.81,5.81,0,0,1,5.77-6.39H38.65a5.81,5.81,0,0,0-5.77,6.39l7.63,72.07a7,7,0,0,0,6.93,6.26h5.18a7,7,0,0,1-6.93-6.26Z"/><path class="cls-5" d="M77.16,52.82H46.84a3.38,3.38,0,0,0-3.37,3.73l4.69,42.92a3.38,3.38,0,0,0,3.37,3H72.47a3.38,3.38,0,0,0,3.37-3l4.69-42.93a3.39,3.39,0,0,0-3.37-3.72Z"/><g class="cls-6"><path class="cls-7" d="M53.34,99.47,48.65,56.55A3.39,3.39,0,0,1,52,52.82H46.84a3.38,3.38,0,0,0-3.37,3.73l4.69,42.92a3.38,3.38,0,0,0,3.37,3h5.18a3.38,3.38,0,0,1-3.37-3Z"/><path class="cls-8" d="M107.62,62.28l-3.37,3.37L92.92,84.85,73.71,96.19l-3.37,3.37a3.14,3.14,0,0,0,.26,4.68,29.7,29.7,0,0,0,41.71-41.7,3.14,3.14,0,0,0-4.69-.26Z"/><path class="cls-9" d="M74.06,100.79a3.14,3.14,0,0,1-.33-4.61h0l-3.37,3.37a3.14,3.14,0,0,0,.26,4.68A29.7,29.7,0,0,0,110,101.91c.58-.58,1.13-1.18,1.65-1.79a29.7,29.7,0,0,1-37.57.67Z"/></g><path class="cls-10" d="M104.25,65.65A21.6,21.6,0,0,1,73.71,96.19Z"/><g class="cls-6"><path d="M34.72,61.94a1.29,1.29,0,1,0,2.57-.27S34.17,32.2,34.17,32.14a4.54,4.54,0,0,1,4.48-5H85.34a4.54,4.54,0,0,1,4.48,5L84.36,83.7l-6.18,6.18s3.63-33.18,3.63-33.21a4.73,4.73,0,0,0-4.66-5.15H46.84a4.73,4.73,0,0,0-4.66,5.16l4.69,42.91a4.66,4.66,0,0,0,4.66,4.21H68.61a4.27,4.27,0,0,0,1.19,1.45h0a33,33,0,0,0,6.74,4H47.44a5.65,5.65,0,0,1-5.64-5.1l-4-37.44a1.3,1.3,0,0,0-1.43-1.15A1.29,1.29,0,0,0,35.26,67l4,37.43a8.23,8.23,0,0,0,8.22,7.43H76.55a8.24,8.24,0,0,0,4.15-1.11A31,31,0,0,0,117.94,92a1.3,1.3,0,0,0-.75-1.67,1.29,1.29,0,0,0-1.67.75A28.47,28.47,0,0,1,81,108.18l-.11-.05a27.93,27.93,0,0,1-9.48-4.91,1.88,1.88,0,0,1-.14-2.75L73.74,98a22.88,22.88,0,0,0,38.12-17c0-.37,0-.75,0-1.12a22.66,22.66,0,0,0-4.71-13c-.34-.44-.7-.87-1.07-1.29l2.48-2.48a1.86,1.86,0,0,1,2.75.15,28.31,28.31,0,0,1,5.57,23,1.3,1.3,0,1,0,2.55.49,31,31,0,0,0-6.09-25.06,4.48,4.48,0,0,0-6.62-.37L87.28,80.78S92.4,32.42,92.4,32.4a7.16,7.16,0,0,0-7.06-7.81H38.65a7.18,7.18,0,0,0-7.06,7.82Zm69.5,5.56.52.62a20.27,20.27,0,0,1,4.48,11.31s0,.13,0,.19H92.11Zm5,14.88a20.18,20.18,0,0,1-4.8,11.71l-.2.23L92.11,82.21h17.12s0,.15,0,.17Zm-19,18.78V84l12.12,12.11a20.16,20.16,0,0,1-12.12,5Zm-2.58,0a20.38,20.38,0,0,1-9-2.75c-.32-.19-3.13-2.23-3.1-2.26L87.69,84ZM49.45,99.32s-4.68-42.83-4.69-42.91a2.1,2.1,0,0,1,2.08-2.3H77.16a2.12,2.12,0,0,1,2.08,2.29l-4,36.4-5.84,5.84a4.48,4.48,0,0,0-1.26,2.57H51.53a2.08,2.08,0,0,1-2.08-1.89Z"/></g></g></g></svg>