<svg xmlns="http://www.w3.org/2000/svg" xmlns:xlink="http://www.w3.org/1999/xlink" viewBox="0 0 140.56 140.56"><defs><style>.cls-1{fill:none;}.cls-2{fill:#00bed6;stroke:#000;stroke-miterlimit:10;stroke-width:3.48px;}.cls-3{fill:#e9e9e9;}.cls-4{fill:#c5c3c9;}.cls-5{fill:#ff889e;}.cls-6{fill:#423e4f;}.cls-7{fill:#fab659;}.cls-8{clip-path:url(#clip-path);}</style><clipPath id="clip-path"><rect class="cls-1" x="26.3" y="25.5" width="87.96" height="87.27"/></clipPath></defs><title>icono-eventos</title><g id="Capa_2" data-name="Capa 2"><g id="Capa_1-2" data-name="Capa 1"><circle class="cls-2" cx="70.28" cy="70.28" r="68.54"/><path class="cls-3" d="M70.28,26.79A42.69,42.69,0,0,0,27.59,69.48v7.33a23,23,0,0,0,23,23,1.85,1.85,0,0,1,1.86,1.85v3.47a6.18,6.18,0,0,0,6.18,6.18H81.92a6.17,6.17,0,0,0,6.18-6.18v-3.47A1.85,1.85,0,0,1,90,99.83a23,23,0,0,0,23-23V69.48A42.69,42.69,0,0,0,70.28,26.79Z"/><path class="cls-4" d="M50.6,99.83c-12.71,0-17.85-10.31-17.85-23V69.48A42.68,42.68,0,0,1,72.86,26.87c-.85-.05-1.71-.08-2.58-.08A42.69,42.69,0,0,0,27.59,69.48v7.33a23,23,0,0,0,23,23Z"/><path class="cls-5" d="M63.92,83.68h0a5.76,5.76,0,0,0,0-8.29h0A5.75,5.75,0,0,0,59,68.65h0a5.76,5.76,0,0,0-7.9-2.56h0a5.75,5.75,0,0,0-7.9,2.56h0a5.77,5.77,0,0,0-4.88,6.71h0a5.76,5.76,0,0,0,0,8.29h0a5.77,5.77,0,0,0,4.88,6.71h0A5.75,5.75,0,0,0,51.14,93h0A5.76,5.76,0,0,0,59,90.4h0a5.75,5.75,0,0,0,4.88-6.71Z"/><path class="cls-5" d="M76.64,83.68h0a5.74,5.74,0,0,1,0-8.29h0a5.76,5.76,0,0,1,4.88-6.71h0a5.74,5.74,0,0,1,7.89-2.56h0a5.74,5.74,0,0,1,7.89,2.56h0a5.76,5.76,0,0,1,4.88,6.71h0a5.76,5.76,0,0,1,0,8.29h0a5.76,5.76,0,0,1-4.88,6.71h0A5.74,5.74,0,0,1,89.43,93h0a5.74,5.74,0,0,1-7.89-2.56h0a5.76,5.76,0,0,1-4.88-6.71Z"/><path class="cls-6" d="M72.94,91.43l-.31-.86a2.5,2.5,0,0,0-4.69,0l-.32.86a1.83,1.83,0,0,0,1.72,2.46h1.89a1.82,1.82,0,0,0,1.71-2.46Z"/><path class="cls-7" d="M73.25,49.46a3,3,0,1,1-3-3,3,3,0,0,1,3,3Z"/><path class="cls-7" d="M70.28,31.34c-1.4.71-2.43,3-2.43,5.66s1,5,2.43,5.67c1.41-.71,2.43-3,2.43-5.67s-1-5-2.43-5.66Z"/><path class="cls-5" d="M83.09,36.64c-1.49-.49-3.82.39-5.72,2.29s-2.78,4.23-2.29,5.73c1.5.49,3.83-.39,5.73-2.29s2.78-4.23,2.28-5.73Z"/><path class="cls-7" d="M88.4,49.46c-.71-1.41-3-2.44-5.66-2.44s-5,1-5.67,2.44c.71,1.4,3,2.43,5.67,2.43s5-1,5.66-2.43Z"/><path class="cls-5" d="M83.09,62.27c.5-1.5-.38-3.82-2.28-5.73s-4.23-2.77-5.73-2.28c-.49,1.49.39,3.82,2.29,5.72s4.23,2.78,5.72,2.29Z"/><path class="cls-7" d="M70.28,67.58c1.41-.71,2.43-3,2.43-5.67s-1-4.95-2.43-5.66c-1.4.71-2.43,3-2.43,5.66s1,5,2.43,5.67Z"/><path class="cls-5" d="M57.47,62.27c1.5.49,3.82-.38,5.73-2.29s2.77-4.23,2.28-5.72c-1.49-.49-3.82.38-5.72,2.28S57,60.77,57.47,62.27Z"/><path class="cls-7" d="M52.16,49.46c.71,1.4,3,2.43,5.67,2.43s5-1,5.66-2.43c-.71-1.41-3-2.44-5.66-2.44s-5,1-5.67,2.44Z"/><g class="cls-8"><path class="cls-5" d="M57.47,36.64c-.49,1.5.38,3.83,2.29,5.73s4.23,2.78,5.72,2.29c.49-1.5-.38-3.83-2.28-5.73S59,36.15,57.47,36.64Z"/><path d="M113,76.6a1.29,1.29,0,0,0,1.29-1.29V69.48A44,44,0,0,0,51,29.94a1.29,1.29,0,0,0,1.13,2.32,41.4,41.4,0,0,1,59.54,37.22v5.83A1.29,1.29,0,0,0,113,76.6Z"/></g><path d="M50.6,101.11a.57.57,0,0,1,.57.57v3.47a7.48,7.48,0,0,0,7.47,7.47H81.92a7.48,7.48,0,0,0,7.47-7.47v-3.47a.58.58,0,0,1,.57-.57,24.3,24.3,0,0,0,24-20.57,1.29,1.29,0,1,0-2.55-.39A21.73,21.73,0,0,1,90,98.54a3.15,3.15,0,0,0-3.15,3.14v3.47A4.89,4.89,0,0,1,81.92,110H80.48v-7a1.29,1.29,0,0,0-2.58,0v7H71.57v-7a1.29,1.29,0,0,0-2.58,0v7H62.66v-7a1.29,1.29,0,0,0-2.58,0v7H58.64a4.89,4.89,0,0,1-4.89-4.89v-3.47a3.15,3.15,0,0,0-3.15-3.14A21.76,21.76,0,0,1,28.88,76.81V69.48A41.31,41.31,0,0,1,47.64,34.82a1.29,1.29,0,0,0-1.41-2.16A43.89,43.89,0,0,0,26.3,69.48v7.33a24.33,24.33,0,0,0,24.3,24.3Z"/><path d="M65.28,74.93a7.05,7.05,0,0,0-5.41-7.43,7.08,7.08,0,0,0-6-3.38,7.16,7.16,0,0,0-2.71.54A7.07,7.07,0,0,0,42.4,67.5,7,7,0,0,0,37,74.93a7.06,7.06,0,0,0,0,9.19,7,7,0,0,0,5.41,7.43,7.06,7.06,0,0,0,8.73,2.84,7.06,7.06,0,0,0,8.73-2.84,7.05,7.05,0,0,0,5.41-7.43,7.06,7.06,0,0,0,0-9.19ZM63,82.75a1.31,1.31,0,0,0-.38,1.16,4.46,4.46,0,0,1-3.79,5.21,1.27,1.27,0,0,0-1,.72,4.47,4.47,0,0,1-6.13,2l0,0a1.28,1.28,0,0,0-1.19,0,4.47,4.47,0,0,1-6.13-2,1.3,1.3,0,0,0-1-.72,4.48,4.48,0,0,1-3.79-5.21,1.31,1.31,0,0,0-.38-1.17,4.46,4.46,0,0,1,0-6.44,1.29,1.29,0,0,0,.37-1.16,4.48,4.48,0,0,1,3.8-5.21,1.28,1.28,0,0,0,1-.72,4.45,4.45,0,0,1,4-2.52,4.38,4.38,0,0,1,2.09.53,1.28,1.28,0,0,0,1.23,0,4.47,4.47,0,0,1,6.13,2,1.28,1.28,0,0,0,1,.72,4.47,4.47,0,0,1,3.78,5.22A1.33,1.33,0,0,0,63,76.31a4.46,4.46,0,0,1,0,6.44Z"/><path d="M51.14,80.4a1.28,1.28,0,0,0-1.29,1.28v3.75a1.29,1.29,0,1,0,2.58,0V81.68a1.28,1.28,0,0,0-1.29-1.28Z"/><path d="M103.56,74.93a7,7,0,0,0-5.4-7.43,7.06,7.06,0,0,0-8.73-2.84,7.07,7.07,0,0,0-8.74,2.84,7,7,0,0,0-5.4,7.43,7,7,0,0,0,0,9.19,7,7,0,0,0,5.4,7.43,7,7,0,0,0,6,3.38,7.06,7.06,0,0,0,2.72-.54,7,7,0,0,0,2.71.54,7.08,7.08,0,0,0,6-3.38,7,7,0,0,0,5.4-7.43,7,7,0,0,0,0-9.19Zm-2.25,7.82a1.31,1.31,0,0,0-.37,1.16,4.46,4.46,0,0,1-3.78,5.21h0a1.31,1.31,0,0,0-1,.72,4.44,4.44,0,0,1-4,2.52,4.33,4.33,0,0,1-2.09-.53,1.36,1.36,0,0,0-.62-.16,1.3,1.3,0,0,0-.58.14l0,0a4.47,4.47,0,0,1-6.13-2,1.32,1.32,0,0,0-1-.72,4.48,4.48,0,0,1-3.79-5.21,1.3,1.3,0,0,0-.38-1.17,4.46,4.46,0,0,1,0-6.44,1.29,1.29,0,0,0,.37-1.16,4.48,4.48,0,0,1,3.79-5.21h0a1.29,1.29,0,0,0,1-.72,4.46,4.46,0,0,1,6.14-2,1.27,1.27,0,0,0,1.21,0,4.45,4.45,0,0,1,6.12,2,1.32,1.32,0,0,0,1,.72,4.46,4.46,0,0,1,3.78,5.21v0a1.31,1.31,0,0,0,.37,1.14h0a4.46,4.46,0,0,1,0,6.44Z"/><path d="M89.43,80.4a1.28,1.28,0,0,0-1.29,1.28v3.75a1.29,1.29,0,1,0,2.58,0V81.68a1.28,1.28,0,0,0-1.29-1.28Z"/><path d="M69.34,95.18h1.89A3.15,3.15,0,0,0,74.15,91l-.31-.85a3.79,3.79,0,0,0-7.11,0l-.32.85a3.15,3.15,0,0,0,2.93,4.2Zm-.51-3.31.32-.85a1.22,1.22,0,0,1,2.27,0l.31.85a.54.54,0,0,1-.5.73H69.34a.55.55,0,0,1-.51-.73Z"/><path d="M70.28,53.71A4.26,4.26,0,1,0,66,49.46a4.26,4.26,0,0,0,4.25,4.25Zm0-5.93a1.68,1.68,0,1,1-1.68,1.68,1.68,1.68,0,0,1,1.68-1.68Z"/><path d="M70.86,30.19a1.25,1.25,0,0,0-1.16,0c-1.91,1-3.14,3.64-3.14,6.81s1.23,5.85,3.14,6.82a1.31,1.31,0,0,0,1.16,0C72.77,42.85,74,40.18,74,37s-1.23-5.85-3.14-6.81ZM70.28,41a6.61,6.61,0,0,1-1.14-4,6.58,6.58,0,0,1,1.14-4,6.58,6.58,0,0,1,1.15,4,6.61,6.61,0,0,1-1.15,4Z"/><path d="M83.49,35.42c-2.42-1-5.4,1-7,2.6-2.25,2.24-3.27,5-2.6,7a1.29,1.29,0,0,0,.82.82c2.53.83,5.32-.88,7-2.6,2.24-2.24,3.26-5,2.6-7a1.33,1.33,0,0,0-.83-.82Zm-3.59,6a6.68,6.68,0,0,1-3.65,2,6.59,6.59,0,0,1,2-3.65,6.71,6.71,0,0,1,3.65-2,6.59,6.59,0,0,1-2,3.65Z"/><path d="M89.55,50a1.25,1.25,0,0,0,0-1.16c-1-1.91-3.64-3.14-6.81-3.14S76.89,47,75.92,48.88a1.31,1.31,0,0,0,0,1.16c1,1.91,3.64,3.14,6.82,3.14S88.59,52,89.55,50Zm-6.81.56a6.59,6.59,0,0,1-4-1.14,7.58,7.58,0,0,1,8,0,6.58,6.58,0,0,1-4,1.14Z"/><path d="M82.19,63.69c.8,0,1.84-.14,2.13-1,.66-2-.36-4.79-2.6-7-1.74-1.73-4.49-3.43-7-2.6a1.3,1.3,0,0,0-.82.83c-.67,2,.35,4.79,2.6,7a8.62,8.62,0,0,0,5.73,2.8ZM79.9,57.45a6.62,6.62,0,0,1,2,3.65,7.62,7.62,0,0,1-5.68-5.67,6.72,6.72,0,0,1,3.65,2Z"/><path d="M69.7,68.73a1.31,1.31,0,0,0,1.16,0c1.91-1,3.14-3.64,3.14-6.82s-1.23-5.85-3.14-6.81a1.25,1.25,0,0,0-1.16,0c-1.91,1-3.14,3.64-3.14,6.81s1.23,5.85,3.14,6.82Zm.58-10.83a7.58,7.58,0,0,1,0,8,7.64,7.64,0,0,1,0-8Z"/><path d="M64.58,52.84a8.65,8.65,0,0,0-5.73,2.79c-2.25,2.25-3.27,5-2.6,7a1.25,1.25,0,0,0,.82.82c2.53.83,5.32-.88,7-2.6,2.24-2.24,3.26-5,2.6-7-.29-.87-1.34-1-2.13-1Zm-2.3,6.23a6.62,6.62,0,0,1-3.64,2,7.59,7.59,0,0,1,5.67-5.67,6.54,6.54,0,0,1-2,3.64Z"/><path d="M51,48.88A1.31,1.31,0,0,0,51,50c1,1.91,3.64,3.14,6.82,3.14S63.68,52,64.64,50a1.25,1.25,0,0,0,0-1.16c-1-1.91-3.64-3.14-6.81-3.14S52,47,51,48.88Zm6.82-.57a6.58,6.58,0,0,1,4,1.15,6.58,6.58,0,0,1-4,1.14,6.61,6.61,0,0,1-4-1.14,6.61,6.61,0,0,1,4-1.15Z"/><path d="M58.37,35.22c-.8,0-1.84.15-2.12,1-.67,2,.35,4.8,2.6,7a8.66,8.66,0,0,0,5.73,2.8c.8,0,1.84-.15,2.13-1,.66-2-.36-4.8-2.6-7a8.7,8.7,0,0,0-5.74-2.8Zm2.3,6.24a6.59,6.59,0,0,1-2-3.65,6.69,6.69,0,0,1,3.64,2,6.53,6.53,0,0,1,2,3.65,6.62,6.62,0,0,1-3.64-2Z"/></g></g></svg>