<svg xmlns="http://www.w3.org/2000/svg" viewBox="0 0 804.17 130.9"><title>luchador-text</title><g id="Capa_2" data-name="Capa 2"><g id="Capa_1-2" data-name="Capa 1"><path d="M52.87,110H2.13a.76.76,0,0,1-.86-.86V88.26l3-.41H5.53c.3,0,.45.14.45.41,2.27-.49,3.4-1.34,3.4-2.54q0-10.65-.41-51.19a4.81,4.81,0,0,0-3-1.27H5.12L.86,33.7a3,3,0,0,1-.45-1.3Q0,13.29,0,10.65l.86-.41q9,0,66.1-1.27c0-.3.14-.45.41-.45V9q0,9.24-.86,40.5H49.89a.75.75,0,0,1-.86-.86V35c-.28-.84-1.13-1.27-2.55-1.27H31.13a2.25,2.25,0,0,0-2.55,2.55V55a2.82,2.82,0,0,0,3,1.72H49v5.53H29.41a2.9,2.9,0,0,0-1.69,3V86.13q0,.57,2.13,2.13H48.61a3.57,3.57,0,0,0,2.13-3.4V73.35H65.65v36.24Q57.13,110,52.87,110Z"/><path d="M137.16,130.9l-66.1-6.81,2.13-21.74h2.13a21.88,21.88,0,0,1,3.85.41q3.47,0,3.84-10.65,3.4-40,3.41-43.08,0-2.55-5.54-2.55H79.17l-.86-.41q.45-2.84,1.72-19.62h.41L115,29v.44q0,4.48-1.3,20.44c-4-.27-6.52-.41-7.67-.41q-2.13,0-3.4,33.26a180.74,180.74,0,0,0-1.3,20q0,.85,19.2,1.3l.41-.86q.87-16.22.86-19.61,2.52,0,20.89.86Q142.69,88.89,137.16,130.9Z"/><path d="M252.6,130.9l-66.1-6.81,2.13-21.74h2.13a21.79,21.79,0,0,1,3.85.41q3.46,0,3.85-10.65,3.4-40,3.4-43.08,0-2.55-5.53-2.55h-1.72l-.86-.41q.45-2.84,1.72-19.62h.41L230.44,29v.44q0,4.48-1.3,20.44c-4-.27-6.52-.41-7.66-.41q-2.13,0-3.4,33.26a181,181,0,0,0-1.31,20q0,.85,19.21,1.3l.41-.86q.86-16.22.86-19.61,2.5,0,20.89.86Q258.14,88.89,252.6,130.9Z"/><path d="M296.19,106.19q-19,0-25.15-9.82a18.45,18.45,0,0,1-2.13-8.11V48.2a3,3,0,0,0-2.13-3h-6V25.15h31.54V45.21h-2.13a3.59,3.59,0,0,0-3.41,2.13v9.79q0,23.88,7.67,23.88,0,.45,1.71.45h2.13q7.83,0,9.38-13.64-.4-25.66-.41-38c-.55-1.29-1.12-2-1.72-2.13a21.92,21.92,0,0,1-3.84.42l-.42-.86V3.4q10.9,0,31.13-.82-.85,21.3-.86,26c-.28,0-.41.14-.41.42l-3-.42h-4.71c-.55.09-.82.37-.82.86q-.73,66.93-3,66.93Q314.76,105.63,296.19,106.19Z"/><path d="M373.71,109.15h-6q-20.7,0-23.88-13.64Q340,78.72,340,56.28h.44A3,3,0,0,1,340,55q0-34.05,6-41.77,5.73-7.67,17.94-7.67h2.13a20.66,20.66,0,0,1,14.49,6c0-3.12.28-4.67.83-4.67q18.51.41,20.06.41,0,4.58-.86,39.23h-.44q-13.26-.4-17-.41v-1.3q-1.12-13.65-9.8-13.64h-3.43q-5.85,0-8.11,8.52-.83,9.41-.82,17.93V66.1q0,14.18,6.8,18.76A8.44,8.44,0,0,0,372,86.13h1.3q6.87,0,9.8-9.38.41-4.26.41-6.39V66.1h16.63q1.31,0,1.72,14.91,0,19.62-15.36,26A37.26,37.26,0,0,1,373.71,109.15Z"/><path d="M439.58,116.84q-4.89,0-28.58-.44V95.51h3.85q4.26,0,4.26-3.4V55.45q0-3.44-3.4-3.43h-5.12V31.57q13-.43,19.2-.44h11.93V52.87c-2.23,0-3.51.58-3.85,1.72v5.53a2.87,2.87,0,0,0,1.71,3q9.51-.4,15.36-.41h1.27l.42-2.13V56.28q0-4.87-.42-14.92L454.08,41h-1.71L452,35.83V19.62l-.41-3,2.13-.42q6.84,0,34.08-.44c-.27,2.84-.41,5.05-.41,6.61q0,6.44-.41,19.4h-8.56q-.83,24.77-.82,35.42l.82.41h4.3l2.95.41v1.31q0,6.74-.41,22.16c-.85,0-1.27.13-1.27.41-4.26-.28-7.39-.41-9.38-.41H453.67V83.14a.37.37,0,0,1,.41-.41l-.41-.86V79.74c0-.38,1.27-.95,3.81-1.72l.45-2.13V70.77a3.64,3.64,0,0,0-3.43-2.13H440a2.73,2.73,0,0,0-3,2.13q-.45,14-.44,21.75a4.32,4.32,0,0,0,2.13,2.58h2.13V116C440.86,116.56,440.43,116.84,439.58,116.84Z"/><path d="M567.08,115.57q-34.79-.85-38.79-.86l-.44-.86q.43-14.75.44-23H536c.4,0,.83-.43,1.27-1.28Q535.74,71.63,533,71.63H513.79q-3.84,0-3.84,8.11a60.88,60.88,0,0,0-2.14,9,3.78,3.78,0,0,0,3.85,3h5.95V113H489.47V91.69H495q2.29,0,4.71-14.49Q509.94,31,512.93,14.94q8.52-.43,12.79-.44h15.35q7.66,31.57,19.17,74.21h.45c3.33-.3,5.74-.45,7.25-.45v.45q-.45,4.64-.45,8.1v4.26a.37.37,0,0,1-.41.42.37.37,0,0,0,.41.41l-.41,4.29Zm-52-49.91C525,64.72,530,63.88,530,63.11l-.42-.86V60.12q0-11.76-3.4-29.85a6.13,6.13,0,0,0-3-2.13q-4.09,0-6,15.35-3.39,16.32-3.4,21.34Z"/><path d="M604.82,109.15h-29q-.41-19.11-.41-21.75l.83-.41h4.7c1.7,0,2.54-.57,2.54-1.72q0-11.85-.85-48.17a21.86,21.86,0,0,1-.42-3.4h-8.52q-.86-21.33-1.27-25.59,55.41,1.82,55.42,4.26a18.07,18.07,0,0,1,10.65,6q4.69,8.41,4.7,23.43,0,38.76-2.13,50.33-2.56,9.44-6.39,12Q625.24,109.15,604.82,109.15Zm4.26-21.3q11,0,13.64-5.12A37.73,37.73,0,0,0,624,74.62q0-39.23-6-39.23c0-.47-1-.76-3-.86h-4.71q-5.11,0-5.12,1.3a314,314,0,0,0-3,40.51h-.41a.37.37,0,0,0,.41.41L601.83,81v3.44c0,2.26,1.13,3.4,3.4,3.4Z"/><path d="M682.52,92.52h-4.7q-19.5,0-23.47-14.5-2.54-8.52-2.54-25.56V51.19c0-.3.14-.45.41-.45a3.22,3.22,0,0,1-.41-1.27q0-39.48,8.52-44.35Q666.57,0,678.68,0h1.71q22.49,0,26.84,9.38,4.29,7,4.29,33.26v19.2q0,21-9.38,26.42Q694.45,92.52,682.52,92.52Zm-20.06,26v-.41q0-5.79.45-20Q690.29,96,702.14,96a116,116,0,0,1,.83,15.35l.44,1.69ZM683.79,70q9.8-1.65,9.8-12.82c.29,0,.44-1.13.44-3.4q0-29.85-6-29.85c0-.47-1-.75-3-.86h-1.28q-7.68,0-7.69,13.23-.4,12.59-1.27,22.19,1.08,11.06,8.11,11.06C683.51,69.5,683.79,69.65,683.79,70Z"/><path d="M785.82,106.19q-17.49,0-17.48-21.74.43-14.67.44-18.79,0-6.12-10.68-9.38-5-.42-7.25-.42h-1.69a3.58,3.58,0,0,0-2.13,3.4V78.47q0,3,3.41,3h4.67c.57,0,.86.42.86,1.27q0,6.61-.42,20.47H721a.75.75,0,0,1-.86-.85V84.86l.41-3h6A4.1,4.1,0,0,0,729.1,78V44.35l-.41-4.26h.41l-.41-.86V27.72a3.58,3.58,0,0,0-3.4-2.13h-5.12v-20l2.13-.44h38.37q21.41,0,26,9,2.13,5.45,3,16.19,0,14.11-12,19.2c-6.16,1.36-9.58,2.35-10.23,3v.86q0,1.05,11.09,2.54,7.66,2.46,7.67,9.8,0,14.49,5.11,14.49h.45q4.61,0,5.53-9.38l-.41-.82V68.23c.08-.57.37-.86.86-.86h4.67c.57.09.86.37.86.86q0,2.42.86,13.64,0,14.4-7.7,20.89A18.23,18.23,0,0,1,785.82,106.19ZM759,49.47q12.36-1.34,12.36-9.38v-3.4q0-7.89-11.92-10.68-.54,0-4.29-.42c-5.38,0-8.08.71-8.08,2.13v.86q1.19,19.62,3.82,19.62A43.19,43.19,0,0,0,759,49.47Z"/></g></g></svg>