<svg xmlns="http://www.w3.org/2000/svg" viewBox="0 0 270.6 43.13"><defs><style>.cls-1{fill:#fafcf7;}</style></defs><title>mexican-text</title><g id="Capa_2" data-name="Capa 2"><g id="Capa_1-2" data-name="Capa 1"><path class="cls-1" d="M0,12.57H7.18v2.49a9.28,9.28,0,0,1,6.58-2.81,7.64,7.64,0,0,1,6.89,3.81,7.7,7.7,0,0,1,6.9-3.85,8.57,8.57,0,0,1,2.7.42,5.54,5.54,0,0,1,2.18,1.3,6.34,6.34,0,0,1,1.45,2.32,10.09,10.09,0,0,1,.53,3.45V32.9H27.23v-10A12.52,12.52,0,0,0,27,20.34a4.07,4.07,0,0,0-.64-1.55,2,2,0,0,0-1-.75,3.58,3.58,0,0,0-1.19-.2q-3.45,0-3.45,5v10H13.6v-10a13.71,13.71,0,0,0-.2-2.55,4.49,4.49,0,0,0-.58-1.61,1.9,1.9,0,0,0-1-.81,3.88,3.88,0,0,0-1.38-.22,4,4,0,0,0-1.27.2,2.21,2.21,0,0,0-1,.77,4.12,4.12,0,0,0-.72,1.59,11.08,11.08,0,0,0-.25,2.63v10H0Z"/><path class="cls-1" d="M45.79,24q0,4.64,4.36,4.63a3.9,3.9,0,0,0,3.53-1.9h6.93q-2.1,7-10.5,7a13.71,13.71,0,0,1-4.72-.78,10.33,10.33,0,0,1-3.67-2.2,9.73,9.73,0,0,1-2.35-3.41,11.26,11.26,0,0,1-.84-4.44,12.48,12.48,0,0,1,.8-4.57,9.49,9.49,0,0,1,2.26-3.47,9.92,9.92,0,0,1,3.54-2.2,13.35,13.35,0,0,1,4.7-.78,13,13,0,0,1,4.64.78A9.32,9.32,0,0,1,58,14.83a9.66,9.66,0,0,1,2.18,3.58,14.31,14.31,0,0,1,.75,4.78V24Zm8.4-4.17a4.35,4.35,0,0,0-1.46-2.42,4.57,4.57,0,0,0-5.42,0A4,4,0,0,0,46,19.78Z"/><path class="cls-1" d="M71.6,21.88l-8.25-9.31h9.36l3.48,4.2,3.57-4.2h9.36l-8.45,9.31,10.19,11H81.35l-5.2-6-5.23,6H61.45Z"/><path class="cls-1" d="M92.84,4.76a3.93,3.93,0,0,1,.32-1.57A4.08,4.08,0,0,1,95.32,1a4,4,0,0,1,3.13,0,4.08,4.08,0,0,1,2.16,2.16,3.77,3.77,0,0,1,.32,1.57,3.76,3.76,0,0,1-.32,1.56,4.08,4.08,0,0,1-2.16,2.16,4,4,0,0,1-3.13,0,4.08,4.08,0,0,1-2.16-2.16A3.92,3.92,0,0,1,92.84,4.76Zm7.66,7.81V32.9H93.32V12.57Z"/><path class="cls-1" d="M120.75,19.15A6.58,6.58,0,0,0,117,17.88a5.14,5.14,0,0,0-1.93.36,4.71,4.71,0,0,0-2.61,2.55,5.17,5.17,0,0,0-.38,2,5,5,0,0,0,.38,2,4.68,4.68,0,0,0,1,1.54,4.33,4.33,0,0,0,1.56,1,5.28,5.28,0,0,0,1.95.36,5.9,5.9,0,0,0,3.76-1.39v6.11a12.63,12.63,0,0,1-5,1.15,11.91,11.91,0,0,1-4.22-.75A10.82,10.82,0,0,1,108,30.62a10.5,10.5,0,0,1-2.44-3.37,10.19,10.19,0,0,1-.91-4.38,11,11,0,0,1,.87-4.42A10.59,10.59,0,0,1,107.87,15a10.73,10.73,0,0,1,3.59-2.25,12,12,0,0,1,4.46-.82A10.65,10.65,0,0,1,120.75,13Z"/><path class="cls-1" d="M140.53,12.57h7.22V32.9h-7.22V30.64a7.52,7.52,0,0,1-6.22,2.9,10.11,10.11,0,0,1-4.08-.81A10,10,0,0,1,127,30.45,10.39,10.39,0,0,1,124.82,27a11.68,11.68,0,0,1-.78-4.32,11.32,11.32,0,0,1,.76-4.15,10.7,10.7,0,0,1,2.1-3.43,9.91,9.91,0,0,1,3.21-2.31,9.77,9.77,0,0,1,4.12-.86,8.27,8.27,0,0,1,6.3,2.66Zm-9,10.11a4.68,4.68,0,0,0,.35,1.84,4.86,4.86,0,0,0,1,1.49,4.43,4.43,0,0,0,1.47,1,4.68,4.68,0,0,0,1.84.35,4.6,4.6,0,0,0,1.81-.35,4.39,4.39,0,0,0,1.46-1,5.54,5.54,0,0,0,1-1.47,4.3,4.3,0,0,0,.37-1.78A4.44,4.44,0,0,0,140.4,21a5.34,5.34,0,0,0-1-1.49,4.39,4.39,0,0,0-1.46-1,4.78,4.78,0,0,0-1.81-.35,4.86,4.86,0,0,0-1.84.35,4.43,4.43,0,0,0-1.47,1,5,5,0,0,0-1,1.45A4.3,4.3,0,0,0,131.5,22.68Z"/><path class="cls-1" d="M152.63,12.57h7.17v2.57a8,8,0,0,1,3-2.39,9.35,9.35,0,0,1,3.53-.62,8.71,8.71,0,0,1,3.67.7,7.27,7.27,0,0,1,2.6,2,5.69,5.69,0,0,1,1.19,2.3,12,12,0,0,1,.31,2.89V32.9H166.9V22.64a11.35,11.35,0,0,0-.22-2.44,3.07,3.07,0,0,0-.77-1.49,2.72,2.72,0,0,0-1.07-.67,4.07,4.07,0,0,0-1.27-.2,3.55,3.55,0,0,0-2.8,1.09,4.51,4.51,0,0,0-1,3.11V32.9h-7.17Z"/><path class="cls-1" d="M215.18,12.57v19a20.09,20.09,0,0,1-.2,3.05,12.87,12.87,0,0,1-.55,2.38,7.54,7.54,0,0,1-1.49,2.44,10,10,0,0,1-2.44,2,13.07,13.07,0,0,1-3.23,1.31,15.55,15.55,0,0,1-3.9.47,15.32,15.32,0,0,1-4.36-.59,12,12,0,0,1-3.47-1.65,9.66,9.66,0,0,1-2.44-2.46,8.14,8.14,0,0,1-1.27-3.07h8.09c.5,1.35,1.64,2,3.41,2a4.59,4.59,0,0,0,3.47-1.26A5,5,0,0,0,208,32.59v-2a11.39,11.39,0,0,1-1.53,1.25,8.42,8.42,0,0,1-1.49.82,7,7,0,0,1-1.58.45,11.44,11.44,0,0,1-1.83.14,10.44,10.44,0,0,1-4-.75,9.24,9.24,0,0,1-5.21-5.33,11.45,11.45,0,0,1-.74-4.19,11.67,11.67,0,0,1,.8-4.34,11.28,11.28,0,0,1,2.16-3.49A9.83,9.83,0,0,1,201.94,12a7.88,7.88,0,0,1,6.07,2.7V12.57ZM199.09,22.64A4.67,4.67,0,0,0,200.42,26a4.29,4.29,0,0,0,1.46,1,4.69,4.69,0,0,0,1.85.35,4.58,4.58,0,0,0,1.8-.35A4.43,4.43,0,0,0,207,26a5.1,5.1,0,0,0,1-1.49,4.64,4.64,0,0,0,0-3.63,5,5,0,0,0-1-1.46,4.6,4.6,0,0,0-1.49-1,4.68,4.68,0,0,0-1.76-.35,4.32,4.32,0,0,0-1.79.37,5.54,5.54,0,0,0-1.47,1,4.74,4.74,0,0,0-1,1.44A4.32,4.32,0,0,0,199.09,22.64Z"/><path class="cls-1" d="M220.77,12.57H228V15.9a8.18,8.18,0,0,1,2.81-2.8,7.66,7.66,0,0,1,3.89-1h.61a4.58,4.58,0,0,1,.77.08v6.86a6.75,6.75,0,0,0-3.09-.71,4.61,4.61,0,0,0-3.74,1.48A6.55,6.55,0,0,0,228,24.18V32.9h-7.18Z"/><path class="cls-1" d="M238.77,4.76a3.77,3.77,0,0,1,.32-1.57A4.08,4.08,0,0,1,241.25,1a4,4,0,0,1,3.13,0,4.08,4.08,0,0,1,2.16,2.16,4,4,0,0,1,0,3.13,4.08,4.08,0,0,1-2.16,2.16,4,4,0,0,1-3.13,0,4.08,4.08,0,0,1-2.16-2.16A3.76,3.76,0,0,1,238.77,4.76Zm7.65,7.81V32.9h-7.17V12.57Z"/><path class="cls-1" d="M258.51,0V32.9h-7.17V0Z"/><path class="cls-1" d="M270.6,0V32.9h-7.17V0Z"/></g></g></svg>