<svg xmlns="http://www.w3.org/2000/svg" xmlns:xlink="http://www.w3.org/1999/xlink" viewBox="0 0 466.08 511.7"><defs><style>.cls-1,.cls-15,.cls-5{fill:none;}.cls-2{fill:#fed2a4;}.cls-3,.cls-6{fill:#ba2a17;}.cls-15,.cls-3,.cls-5{stroke:#000;}.cls-15,.cls-3{stroke-miterlimit:10;stroke-width:4.03px;}.cls-4{fill:#e9e9e9;}.cls-5{stroke-linecap:round;stroke-linejoin:round;stroke-width:3.78px;}.cls-7{fill:#36d39a;}.cls-8{fill:#00b661;}.cls-9{fill:#ea8d86;}.cls-10{fill:#c5c3c9;}.cls-11{clip-path:url(#clip-path);}.cls-12{fill:#00bed6;}.cls-13{fill:#00a7c3;}.cls-14{fill:#ffbd86;}.cls-16{fill:#fc763f;}.cls-17{fill:#fc8c65;}.cls-18{fill:#fff;}.cls-19{fill:#333;}.cls-20{fill:#9ad14b;}.cls-21{fill:#90bc42;}</style><clipPath id="clip-path"><rect class="cls-1" x="102.65" y="309.79" width="122.79" height="129.1" transform="translate(-1.34 0.59) rotate(-0.21)"/></clipPath></defs><title>personaje-mexicano</title><g id="Capa_2" data-name="Capa 2"><g id="personaje-mexicano"><g id="brazo"><path class="cls-2" d="M357.16,319.34v-.27l-78,17.33L203.5,315.06l-28-3.68s43.53,101.3,109.56,73.07c37-15.82,66.08-42.3,70.71-46.49,2.66,1.81,21.53,14.36,21.17,6.75-.24-5-.18-14.11-.09-20.45A6.23,6.23,0,0,0,370,318a11.8,11.8,0,0,0-.65-4.68C367.37,307.57,360.38,315.32,357.16,319.34Z"/><path d="M360.18,319.34v-.27a3.06,3.06,0,0,0-3.83-2.92c-25.37,5.64-51.17,10.32-76.29,17a8.59,8.59,0,0,0-1.44.32c-.54.27,1.72.51,1,0-.92-.73-3.32-.93-4.42-1.24l-20.34-5.74-45.85-12.93c-10.84-3.05-22.36-3.65-33.51-5.12-2.55-.34-3.38,2.75-2.61,4.55A178.1,178.1,0,0,0,209,366.63c11.2,11.32,25,21.14,40.78,24.5,20.58,4.38,39.14-4.07,56.8-13.93A281,281,0,0,0,358,340.1l-3.67.47c4.81,3.25,18.44,13.79,24.22,8.17,1.62-1.57,1.49-3.7,1.43-5.79-.1-4.24-.11-8.49-.08-12.74,0-3.73.67-7.89-1.52-11.17a9.68,9.68,0,0,0-8.29-4l3,3c0-4.22-1.33-10.27-6.75-9.68-4.69.52-8.56,5.51-11.29,8.87-2.44,3,1.81,7.29,4.27,4.27a49.64,49.64,0,0,1,3.86-4.34c.54-.52,1.39-1.62,2.1-1.86.73-.9,1.17-.78,1.33.35A2.84,2.84,0,0,1,367,318a3.07,3.07,0,0,0,3,3c5.79,0,3.73,12.3,3.76,16.27,0,2.28.06,4.55.13,6.82,0,1.24,1.1,0,.57,0a8.91,8.91,0,0,1-2-.44c-5.42-1.58-10.55-5.18-15.19-8.32a3.09,3.09,0,0,0-3.67.47,279.84,279.84,0,0,1-40.32,30.38c-17.15,10.62-37,22.53-58,19.79-29.8-3.89-51.72-31.33-66.23-55.41a174.36,174.36,0,0,1-10.95-20.72l-2.61,4.55L195.22,317c2.69.36,5.51.52,8.17,1.08-1.68-.35,1.34.48,1.86.62l43.88,12.38,22,6.21c2.79.79,6,2.29,9,2,4.12-.41,8.38-1.86,12.41-2.76L317,331.08,358,322l-3.83-2.91v.27C354,323.23,360,323.23,360.18,319.34Z"/></g><g id="personaje"><polygon class="cls-3" points="186.69 508.49 139.94 508.49 126.5 413.81 200.12 413.81 186.69 508.49"/><polygon class="cls-2" points="134.87 472.74 139.94 508.49 186.69 508.49 191.76 472.74 134.87 472.74"/><text/><path class="cls-2" d="M115.55,436.78l-.06-.61-.75,0-.55-.41-.16.38L104,435.74s-9.55,13.73-4.38,13.48c3.15-.15,8.9-.12,12.89-.07a3.9,3.9,0,0,0,3.93-4.3,7.45,7.45,0,0,0,3-.41C123,443.18,118.09,438.79,115.55,436.78Z"/><path class="cls-2" d="M111.46,329S62.19,366.67,73.6,391.74s29.9,44.6,29.9,44.6l11.54.39Z"/><path d="M114.87,438.74H115a2,2,0,0,0,2-2l-3.13-94.11-.45-13.6c0-1.36-1.75-2.72-3-1.74a153.61,153.61,0,0,0-28.66,28.47c-5.42,7.14-10.5,15.4-11.67,24.46-1.43,11.11,5.86,21.5,11.47,30.46a185.28,185.28,0,0,0,20.12,26.69l-.32-2.45c-2,3-8.91,12-4.89,15.52,2.53,2.2,9.46.66,12.45.67,4.69,0,8.45-1,8.81-6.31l-2,2c2.61-.09,6.09-.66,6.21-3.9s-3.51-5.87-5.66-7.61c-2-1.62-4.86,1.21-2.85,2.85.39.31,5.76,4.51,2.3,4.63a2.07,2.07,0,0,0-2,2c-.22,3.27-9,2.27-10.94,2.3-.68,0-3.22.52-3.85.11,1.12.72.34-.21.94-1.3,1.64-3,3.06-6.07,5-8.95a2,2,0,0,0-.31-2.44,175.67,175.67,0,0,1-15.65-20A169.16,169.16,0,0,1,78.4,397c-2.34-4.52-4.63-8.86-4.49-14.07.46-16.7,16.11-32,27.49-42.61q3.88-3.63,8-7a21.59,21.59,0,0,0,2.4-2c.18-.21,1.34-1,.72-.58l-3-1.74,3.13,94.11.45,13.6,2-2h-.17C112.27,434.62,112.28,438.65,114.87,438.74Z"/><path class="cls-2" d="M362.36,312.45l-.8.12v1c-.32.45-.51.74-.51.74l.51.19,0,13.38s18.78,11.94,18.19,5.11c-.36-4.17-.61-11.78-.76-17.08a5.19,5.19,0,0,0-5.92-5,9.64,9.64,0,0,0-.71-3.89C370.51,302.27,364.92,309,362.36,312.45Z"/><path class="cls-4" d="M120.61,417.77l0,15a4.12,4.12,0,0,0,8.24,0l-.05-15Z"/><path class="cls-4" d="M140.39,417.7l.06,15a4.12,4.12,0,1,0,8.24,0l-.06-15Z"/><path class="cls-4" d="M160.18,417.63l0,15a4.12,4.12,0,1,0,8.24,0l-.05-15Z"/><path class="cls-4" d="M180,417.56l.06,15a4.12,4.12,0,1,0,8.24,0l-.06-15Z"/><path class="cls-4" d="M208,417.46l0,15a4.12,4.12,0,1,1-8.24,0l-.05-15Z"/><path class="cls-5" d="M144.55,357.63v3.53m39.05-3.67,0,3.53m-14.71-.19a6.52,6.52,0,0,1-9.65,0"/><path class="cls-6" d="M209.75,403.81l-9.18,3.94-6.23.4-10.55-4.25-8,.63-6.5,4-5,.88-6.14-2.14L150.88,404h-4.54l-5.68,2.3-6.22,2.46-5-.58L122.52,405l-4.11-1-3.69,4.11,1.48,10.25a4.45,4.45,0,0,0,4.42,3.81l87.38-.31a4.46,4.46,0,0,0,4.4-3.85l1.41-10.26Z"/><path class="cls-7" d="M214.86,400.06l3-21.6-5.95-6.28-6.25,2.59L196,378.23l-5.55-2-10.93-3.36-5.6,2.27-10.49,3.19-8.38-3.55-7.23-2-16.52,5.62-10.82-5.27-6.25,0-3.77,5.63,3.12,21.58,5.38,4,8.24,3.48,5.49.84,7.53-2.2,6.59-3,5.49,1,10.39,4.84,10.53-3,7.53-2.83,8.49,2.77,5.5,2.92,6.33-1.65,6.85-3.28Z"/><path class="cls-6" d="M218.92,370.41l2.86-20.86-3-5.76-6.37-2-11.3,4-5.05,1.6-7.81-2.45L180,341.7l-10.19,3.81-5.73,2-7-2.46-8.58-3.31-9.42,3-6.59,2.92-9.43-2.86-6.78-2.91-5.93,1.74-4,6.38,3,20.84,4.93,2.41,6.25,0,10.82,5.27L143,374.14l4.88-1.3,6.17,1.52,9.44,4,9.68-2.87,6.41-2.59,6.52,1.78,10,3.56,9.58-3.46,6.25-2.59Z"/><path class="cls-7" d="M105.17,341.92l-.41-2.85a9.93,9.93,0,0,1,2.94-8.57c10.28-9.88,26.14-16.35,32.68-18.75a4.12,4.12,0,0,1,4.72,1.43c3.19,4.38,10.28,13.49,17,18.13a3.26,3.26,0,0,0,3.76,0c6.69-4.69,13.72-13.85,16.88-18.25a4.09,4.09,0,0,1,4.71-1.46c6.56,2.34,22.46,8.71,32.81,18.51a9.93,9.93,0,0,1,3,8.54l-.39,2.85-4.07,2.3-6.37-2-11.3,4-5.05,1.6-7.81-2.45L180,341.7l-10.19,3.81-5.73,2-7-2.46-8.58-3.31-9.42,3-6.59,2.92-9.43-2.86-6.78-2.91-5.93,1.74Z"/><path class="cls-8" d="M112.57,342.93l-2.2-14.81c-.37.31-1.73,1.51-1.85,1.62l-.82.76a9.93,9.93,0,0,0-2.94,8.57v.06l.41,2.79Z"/><path class="cls-9" d="M112.57,342.93l-2.2.65-4,6.38,3,20.84,4.93,2.41h2.8Z"/><path class="cls-4" d="M222.89,341.49l-1.11,8.06-6-3a8.37,8.37,0,0,0-7.37,0l-5.21,2.6a16.09,16.09,0,0,1-14.21.05l-5.23-2.56a8.35,8.35,0,0,0-7.36,0l-5.21,2.6a16.16,16.16,0,0,1-14.21.05l-5.23-2.57a8.37,8.37,0,0,0-7.37,0l-5.2,2.6a16.09,16.09,0,0,1-14.21.05l-5.23-2.56a8.34,8.34,0,0,0-7.37,0l-6,3-1.16-8,3.73-1.87a16.16,16.16,0,0,1,14.21-.05l5.22,2.57a8.37,8.37,0,0,0,7.37,0l5.21-2.6a16.09,16.09,0,0,1,14.21-.05l5.23,2.56a8.31,8.31,0,0,0,7.36,0l5.21-2.61a16.16,16.16,0,0,1,14.21-.05l5.23,2.57a8.35,8.35,0,0,0,7.36,0l5.21-2.6a16.09,16.09,0,0,1,14.21,0Z"/><path class="cls-8" d="M113.62,400.43l5.38,4,2.88,1.22-4.81-32.41h-2.8l-3.77,5.63Z"/><path class="cls-4" d="M218.92,370.41l-1.1,8-2-1a8.34,8.34,0,0,0-7.37,0l-5.21,2.6a16.09,16.09,0,0,1-14.21.05l-5.22-2.56a8.37,8.37,0,0,0-7.37,0l-5.21,2.6a16.12,16.12,0,0,1-14.21.05l-5.23-2.57a8.35,8.35,0,0,0-7.36,0l-5.21,2.6a16.09,16.09,0,0,1-14.21,0l-5.23-2.56a8.37,8.37,0,0,0-7.37,0l-2,1-1.16-8a16.15,16.15,0,0,1,13.88.11l5.22,2.57a8.37,8.37,0,0,0,7.37,0l5.21-2.6a16.12,16.12,0,0,1,14.21-.05l5.23,2.56a8.31,8.31,0,0,0,7.36,0l5.21-2.6a16.09,16.09,0,0,1,14.21-.05l5.23,2.56a8.37,8.37,0,0,0,7.37,0l5.2-2.6a16.15,16.15,0,0,1,13.88-.21Z"/><path class="cls-9" d="M120.62,422.12l7.57,0a4.47,4.47,0,0,1-4.43-3.82l-2-13.49-3.35-.84-3.69,4.11s1.58,10.79,1.67,11a4.46,4.46,0,0,0,4.23,3Z"/><path class="cls-4" d="M214.86,400.06l-1.05,7.64a8.39,8.39,0,0,0-5.21.73L203.39,411a16.16,16.16,0,0,1-14.21,0L184,408.52a8.37,8.37,0,0,0-7.37,0l-5.21,2.6a16.09,16.09,0,0,1-14.21.05l-5.23-2.56a8.31,8.31,0,0,0-7.36,0l-5.21,2.61a16.16,16.16,0,0,1-14.21.05l-5.23-2.57a8.24,8.24,0,0,0-5.21-.69l-1.1-7.64a16.15,16.15,0,0,1,9.71,1.41l5.22,2.56a8.37,8.37,0,0,0,7.37,0l5.21-2.59a16.12,16.12,0,0,1,14.21-.06l5.23,2.57a8.37,8.37,0,0,0,7.37,0l5.2-2.6a16.09,16.09,0,0,1,14.21,0l5.23,2.56a8.34,8.34,0,0,0,7.37,0l5.2-2.6a16.1,16.1,0,0,1,9.71-1.48Z"/><path class="cls-10" d="M122.54,410,121.19,401a16.19,16.19,0,0,0-7.57-.55l1.1,7.64a8.24,8.24,0,0,1,5.21.69Z"/><path class="cls-10" d="M117.65,377.13l-1.16-7.83a16.13,16.13,0,0,0-7.15,1.5l1.16,8,2-1a8.37,8.37,0,0,1,5.2-.74Z"/><path class="cls-10" d="M112,338.91a15.78,15.78,0,0,0-3.07,1.14l-3.73,1.87,1.16,8s6.52-3.24,6.79-3.34Z"/><g class="cls-11"><path d="M130.1,318.12c4.48-2.13,8.41-3.67,10.92-4.59a2.22,2.22,0,0,1,2.55.77c3.59,4.91,10.63,13.85,17.46,18.57a5.25,5.25,0,0,0,5.92,0c6.81-4.77,13.78-13.76,17.34-18.7a2.23,2.23,0,0,1,2.54-.79,122.08,122.08,0,0,1,21.07,9.88,1.89,1.89,0,0,0,2-3.24,125.83,125.83,0,0,0-21.76-10.2,6,6,0,0,0-6.88,2.14c-2.75,3.82-9.86,13.2-16.44,17.81a1.38,1.38,0,0,1-1.59,0c-6.62-4.57-13.79-13.9-16.57-17.7a6,6,0,0,0-6.89-2.08c-2.59.94-6.64,2.53-11.25,4.72a1.89,1.89,0,0,0,1.62,3.42Z"/><path d="M123.56,321.48a1.89,1.89,0,1,0-1.84-3.3,74.08,74.08,0,0,0-15.33,11,11.82,11.82,0,0,0-3.51,10.19l11.45,79.24a6.36,6.36,0,0,0,4.41,5.15l0,9.07a6,6,0,0,0,12,0l0-8.77,7.76,0,0,8.77a6,6,0,0,0,12,0l0-8.78,7.76,0,0,8.77a6,6,0,1,0,12,0l0-8.77,7.76,0,0,8.77a6,6,0,1,0,12-.05l0-8.77,7.76,0,0,8.78a6,6,0,1,0,12-.05l0-9.07a6.34,6.34,0,0,0,4.37-5.17l10.88-79.32a11.82,11.82,0,0,0-3.57-10.17,59.56,59.56,0,0,0-5.45-4.54,1.89,1.89,0,0,0-2.25,3,54.94,54.94,0,0,1,5.09,4.24,8.12,8.12,0,0,1,2.43,6.91l0,.26a20.68,20.68,0,0,0-9.34-2.5c-4.84,0-8.95,2.38-13.15,4.48a6.49,6.49,0,0,1-5.69,0L188,338.07a18.13,18.13,0,0,0-15.89.06l-5.21,2.6a6.46,6.46,0,0,1-5.69,0L156,338.19a18.2,18.2,0,0,0-15.89.06c-1.83.91-3.65,1.94-5.54,2.75a6.49,6.49,0,0,1-5.35-.13c-1.9-.93-3.77-1.91-5.69-2.79a18.19,18.19,0,0,0-15.43.28l-1.38.69,0-.26a8,8,0,0,1,2.38-6.92,70.48,70.48,0,0,1,14.55-10.39Zm3.92,22.83a10.77,10.77,0,0,0,9.07-.08c3.67-1.83,7.23-4.06,11.46-4.08s7.77,2.17,11.41,4a10.37,10.37,0,0,0,9.14,0l5.21-2.61a14.28,14.28,0,0,1,12.53,0c4.3,2.11,9.06,4.8,13.9,2.71,2.11-.92,4.07-2.13,6.18-3.06a14.33,14.33,0,0,1,11.93.23l2.52,1.24-.57,4.1-3.68-1.81a10.41,10.41,0,0,0-9.05,0l-5.2,2.6c-6.34,3.16-12,.31-17.76-2.52-2.55-1.25-6.56-1.64-9,0l-5.2,2.6a14.32,14.32,0,0,1-11.81.38c-3.44-1.45-6.57-3.95-10.48-3.93-3.57,0-6.65,2.13-9.73,3.67-6.35,3.17-12,.31-17.76-2.52-3.64-1.79-7.25-.87-10.7.86l-2,1-.6-4.09,2.51-1.26a14.28,14.28,0,0,1,12.53,0c1.73.84,3.42,1.87,5.21,2.61Zm80.26,62.39c-1.78.76-3.51,1.8-5.19,2.64a14.19,14.19,0,0,1-6.26,1.48c-4.19,0-7.83-2.2-11.5-4a10.3,10.3,0,0,0-8.11-.37,67,67,0,0,0-6.14,3,14.22,14.22,0,0,1-6.27,1.47c-4.17,0-7.83-2.19-11.49-4a10.34,10.34,0,0,0-9.05,0c-3.66,1.83-7.2,4.06-11.47,4.08s-7.83-2.2-11.5-4a10.1,10.1,0,0,0-4.42-1l-.57-3.91H116c3.36-.06,6.18,1.26,9.12,2.71,2.31,1.13,4.49,2.32,7.14,2.31,3.51,0,6.68-2.15,9.72-3.67a14.3,14.3,0,0,1,12.54,0c3.06,1.5,6.22,3.61,9.75,3.6s6.69-2.15,9.73-3.67a14.25,14.25,0,0,1,12.53,0c3.09,1.51,6.14,3.61,9.75,3.59s6.63-2.2,9.73-3.67a14.85,14.85,0,0,1,6.71-1.46l-.53,3.91a11.72,11.72,0,0,0-4.44,1ZM111.5,372a15.08,15.08,0,0,1,4.62-.78c4.15,0,7.84,2.2,11.49,4a10.34,10.34,0,0,0,9,0l5.2-2.6a14.3,14.3,0,0,1,12.54,0c3.13,1.53,6.4,3.77,10,3.52,3.41-.24,6.46-2.1,9.45-3.59a14.28,14.28,0,0,1,12.53-.05l5.23,2.57a10.32,10.32,0,0,0,9,0l5.21-2.6a14.27,14.27,0,0,1,11-.69l-.55,4-.08,0a10.26,10.26,0,0,0-8.58.25l-5.2,2.6a14.24,14.24,0,0,1-11.19.61c-3.68-1.34-6.95-4.18-11.1-4.17-3.44,0-6.69,2.16-9.72,3.67a14.27,14.27,0,0,1-6.27,1.48c-4.22,0-7.83-2.19-11.49-4a10.28,10.28,0,0,0-9,0l-5.21,2.6c-3.51,1.75-9.07,2.34-12.53,0a53.07,53.07,0,0,0-6.47-3.07A10.49,10.49,0,0,0,112,376c-.12-1.33-.38-2.67-.57-4l.08,0Zm1.8,7.6,0,0c3.72-1.82,7.56.93,10.88,2.56A18,18,0,0,0,140.1,382l5.21-2.6a6.5,6.5,0,0,1,5.69,0,62.91,62.91,0,0,0,7.25,3.4,18.13,18.13,0,0,0,13.86-.89l5.21-2.6a6.49,6.49,0,0,1,5.69,0c2.15,1.05,4.28,2.25,6.51,3.13a18.17,18.17,0,0,0,13.56-.15c2.07-.86,4.19-2.05,6.26-3.08a7,7,0,0,1,6.42.34L213.23,398c-5.3-.27-9.55,2.17-14.13,4.45-3.87,1.93-7.55-.89-10.91-2.54a18.12,18.12,0,0,0-9.5-1.75c-4.41.4-7.93,2.86-11.93,4.56a6.63,6.63,0,0,1-5.36-.13L156.17,400a18,18,0,0,0-15.88.05l-5.21,2.6c-2.43,1.21-4.72.5-7-.62-4.18-2-8.06-4-12.86-3.71l-2.66-18.42Zm104.07-11.75-.28-.08a18,18,0,0,0-12.89,1.2,62.94,62.94,0,0,1-5.77,2.84,6.49,6.49,0,0,1-5.13-.22L188.07,369a18.13,18.13,0,0,0-15.89.05l-5.2,2.6a6.46,6.46,0,0,1-5.69,0l-5.23-2.56a18.1,18.1,0,0,0-15.89.06l-5.2,2.6a6.5,6.5,0,0,1-5.69,0l-5.23-2.57a18.16,18.16,0,0,0-13.18-1L108.4,351l4.79-2.4a6.56,6.56,0,0,1,5.69,0l5.22,2.57a18.13,18.13,0,0,0,15.89-.06l5.21-2.6a6.56,6.56,0,0,1,5.69,0l5.22,2.56A18.1,18.1,0,0,0,172,351l5.21-2.6a6.53,6.53,0,0,1,5.69,0l5.23,2.57A18.16,18.16,0,0,0,204,350.9l5.2-2.6a6.5,6.5,0,0,1,5.69,0l4.81,2.36ZM127,432.76a2.23,2.23,0,1,1-4.46,0l0-8.78H127Zm19.79-.07a2.23,2.23,0,1,1-4.46,0l0-8.77h4.46Zm19.78-.07a2.23,2.23,0,1,1-4.46,0l0-8.77h4.46Zm19.79-.07a2.23,2.23,0,0,1-4.46,0l0-8.77h4.45Zm19.78-.07a2.23,2.23,0,0,1-4.46,0l0-8.77h4.46Zm-85.53-12.25a2.58,2.58,0,0,1-2.55-2.2l-1.18-8.2a12.08,12.08,0,0,1,2.21.62c4.24,2.08,8.27,4.4,13.18,4.38,4.74,0,8.67-2.24,12.78-4.3a6.72,6.72,0,0,1,6.05-.2l2.59,1.27c3.39,1.67,6.69,3.13,10.59,3.12,4.88,0,8.92-2.37,13.14-4.48a6.5,6.5,0,0,1,5.69,0c4.23,2.07,8.29,4.4,13.18,4.38a18.13,18.13,0,0,0,7.94-1.87l4-2a10.29,10.29,0,0,1,3.39-1.22l-1.13,8.21a2.57,2.57,0,0,1-2.52,2.22Z"/></g><path class="cls-12" d="M320.73,160.06c-.31-85.48-71-154.52-158-154.2S5.55,75.71,5.86,161.18s71,154.51,158,154.2S321,245.53,320.73,160.06Z"/><path class="cls-13" d="M29.27,161.1C29,79.5,93,12.42,174.45,6.24q-5.8-.41-11.71-.38C75.79,6.17,5.55,75.71,5.86,161.18s71,154.51,158,154.2q5.91,0,11.71-.47c-81.51-5.59-146-72.21-146.29-153.81Z"/><path class="cls-4" d="M267.73,84.45a11.94,11.94,0,0,0-18.88-.26c-12.08,15.29-38.64,39.56-85.69,39.73S89.37,100,77.19,84.8a12,12,0,0,0-18.89.4A125.26,125.26,0,0,0,33,161.09c0,1.46,0,2.92.1,4.38A57.63,57.63,0,0,0,87.29,221l1.19.06a7.89,7.89,0,0,1,7.51,7.4c1.07,17.21,9.48,59.19,66.29,59.71h2.95c56.8-.92,64.91-43,65.85-60.19a7.89,7.89,0,0,1,7.46-7.45l1.19-.07a57.39,57.39,0,0,0,53.72-54.83c.07-1.82.1-3.66.1-5.5a125.26,125.26,0,0,0-25.82-75.7Z"/><path class="cls-14" d="M163.63,255.25c-12.58,0-24.32-3-33.06-8.6a19.42,19.42,0,1,1,21-32.71c1.35.87,5.59,2.49,12,2.47s10.62-1.68,12-2.55a19.42,19.42,0,1,1,21.18,32.55c-8.7,5.66-20.41,8.79-33,8.84Z"/><path class="cls-14" d="M131.78,166.25A28.71,28.71,0,1,1,103,137.64a28.71,28.71,0,0,1,28.81,28.61Z"/><path class="cls-14" d="M251.69,165.82a28.71,28.71,0,1,1-28.82-28.61,28.71,28.71,0,0,1,28.82,28.61Z"/><path class="cls-14" d="M165.28,172.46h-3.89a11.65,11.65,0,0,0,.09,23.3h3.88a11.65,11.65,0,0,0-.08-23.3Z"/><path d="M41.44,120.4a5.85,5.85,0,0,0-7.24,4,131.37,131.37,0,0,0-5,41.17A63.28,63.28,0,0,0,88.9,226.76c1.38.07,3.08.18,3.19,2,.53,8.57,3,25.07,13.36,39.22,14.25,19.4,38.68,26.35,61.81,26,26.47-.43,46.16-9.31,58.53-26.4,10.29-14.22,12.61-30.74,13.08-39.32.09-1.78,1.8-1.9,3.17-2a63.06,63.06,0,0,0,59.19-60.45,131.89,131.89,0,0,0-26.9-85c-6.93-9.09-21-9.35-28.13-.35-11,13.94-36.18,37.35-81.12,37.51S94.8,94.89,83.7,81c-7.19-9-21.27-8.59-28.13.55a132.9,132.9,0,0,0-12.48,20.11A5.85,5.85,0,0,0,53.55,107,121,121,0,0,1,64.93,88.61a6.15,6.15,0,0,1,9.63-.26c12.42,15.5,40.71,41.49,90.57,41.31s78-26.36,90.26-42a6.15,6.15,0,0,1,9.63.19,120.76,120.76,0,0,1,24.51,77.41,51.38,51.38,0,0,1-48.24,49.22c-7,.46-14.14,5.32-14.12,13-.39,7.29-2.33,21.29-10.87,33.09-10.09,13.94-26.65,21.19-49.25,21.56-19.45.39-40.12-4.8-52.16-21.2-8.62-11.74-10.66-25.72-11.11-33-.48-7.7-6.92-12.53-14.21-12.94a51.63,51.63,0,0,1-48.64-49.94,119.55,119.55,0,0,1,4.52-37.48,5.85,5.85,0,0,0-4-7.25Z"/><path d="M165.38,201.62a17.51,17.51,0,0,0-.12-35l-3.89,0a17.51,17.51,0,1,0,.13,35Zm-9.74-17.48a5.8,5.8,0,0,1,5.78-5.81l3.88,0a5.8,5.8,0,1,1,0,11.6h-3.88a5.8,5.8,0,0,1-5.82-5.78Z"/><path d="M119.76,216.67a25.3,25.3,0,0,0,7.66,34.91c9.67,6.19,22.54,9.57,36.23,9.52s26.54-3.52,36.17-9.78a25.27,25.27,0,0,0-27.53-42.39s-3,1.61-8.82,1.63-8.79-1.55-8.8-1.55a25.27,25.27,0,0,0-34.91,7.66Zm43.76,5.6c7.23,0,12.67-1.91,15.12-3.51a13.56,13.56,0,1,1,14.79,22.74c-7.76,5.05-18.35,7.85-29.82,7.89s-22.08-2.68-29.88-7.67a13.57,13.57,0,1,1,14.63-22.85c2.47,1.59,7.92,3.42,15.16,3.4Z"/><path d="M103.53,131.79a34.57,34.57,0,1,0,34.68,34.44,34.61,34.61,0,0,0-34.68-34.44Zm.2,57.42a22.86,22.86,0,1,1,22.77-22.94,22.89,22.89,0,0,1-22.77,22.94Z"/><path d="M223.1,200.49a34.57,34.57,0,1,0-34.69-34.44,34.6,34.6,0,0,0,34.69,34.44Zm-.21-57.42A22.86,22.86,0,1,1,200.12,166a22.88,22.88,0,0,1,22.77-22.93Z"/><path d="M226.92,308.49a163.43,163.43,0,0,0,57.73-40.42,5.85,5.85,0,0,0-8.63-7.91c-35.5,38.76-91.18,57-142.72,46.44C64.24,292.94,12,233,11.71,161.16,11.42,79.05,79.18,12,162.76,11.71S314.58,78,314.88,160.07A146.37,146.37,0,0,1,289.56,243a5.86,5.86,0,0,0,1.57,8.13h0a5.86,5.86,0,0,0,8.13-1.56A158,158,0,0,0,326.58,160C326.27,71.47,252.76-.32,162.72,0S-.32,72.64,0,161.2C.24,227.77,41.82,284.85,100.7,309L113,313.45a166.61,166.61,0,0,0,101.64-.32l.12,0Z"/><line class="cls-15" x1="162.61" y1="453.48" x2="162.61" y2="511.7"/></g><g id="ojos"><rect x="93.18" y="162.22" width="20.6" height="22.16" rx="9.37" transform="translate(-0.62 0.37) rotate(-0.21)"/><circle class="cls-4" cx="98.68" cy="172.7" r="2.99"/><rect x="212.41" y="161.79" width="20.6" height="22.16" rx="9.37" transform="translate(446.04 344.95) rotate(179.79)"/><circle class="cls-4" cx="227.51" cy="172.23" r="2.99"/></g><g id="cejas"><path d="M237.49,154.86l-32.11,10.79c-5.68,1.91-3.24,11,2.49,9L240,163.89c5.68-1.91,3.24-11-2.49-9Z"/><path d="M86.11,164.43,118.29,175c5.75,1.89,8.21-7.16,2.49-9L88.6,155.4c-5.74-1.89-8.2,7.16-2.49,9Z"/></g><g id="boca"><path d="M148.5,237.76l32.71-.12c6,0,6-9.39,0-9.37l-32.71.12c-6,0-6,9.39,0,9.37Z"/></g><g id="nacho-rojo"><path class="cls-6" d="M442.26,222a3.29,3.29,0,0,1-.16,1.69,3.35,3.35,0,0,1-2,1.94,3.29,3.29,0,0,1-2.23,0,3.27,3.27,0,0,0-4.23,1.89l-4.15,10.89a4.44,4.44,0,0,1-5.72,2.57,4.43,4.43,0,0,1-2.57-5.72l1.78-4.67a9.94,9.94,0,0,0-18.58-7.07l-1.78,4.67a4.44,4.44,0,0,1-5.72,2.56,4.42,4.42,0,0,1-2.57-5.72l4.14-10.89a3.27,3.27,0,0,0-1.9-4.23,3.28,3.28,0,0,1-.9-5.61l34.26-27.91a3.28,3.28,0,0,1,5.31,2Z"/><path class="cls-16" d="M440.09,225.67l8.68,53.81-96.16-36.6,42.26-34.43a3.26,3.26,0,0,0,1.69,1.46,3.27,3.27,0,0,1,1.9,4.23L394.32,225a4.42,4.42,0,0,0,2.57,5.72,4.44,4.44,0,0,0,5.72-2.56l1.78-4.67A9.94,9.94,0,0,1,423,230.59l-1.78,4.67a4.43,4.43,0,0,0,2.57,5.72,4.44,4.44,0,0,0,5.72-2.57l4.15-10.89a3.27,3.27,0,0,1,4.23-1.89A3.29,3.29,0,0,0,440.09,225.67Z"/><polygon class="cls-17" points="398.39 211.63 361.3 246.57 352.61 242.88 394.87 208.45 398.39 211.63"/><polyline class="cls-9" points="398.39 211.63 434.37 176.46 429.92 176.4 395.66 204.3 394.87 208.45"/><path class="cls-18" d="M434.88,221.2a2,2,0,0,1-1.27-1.56l-4.68-29a2,2,0,1,1,4-.64L437.57,219a2,2,0,0,1-2.69,2.2Z"/><path class="cls-18" d="M439.61,272a2,2,0,0,1-1.27-1.56l-5-31.16a2,2,0,0,1,4-.64l5,31.16a2,2,0,0,1-2.69,2.2Z"/><circle class="cls-18" cx="429.95" cy="184.31" r="2.01"/><path class="cls-19" d="M450.75,279.16l-8.46-52.44.07-.06a5.23,5.23,0,0,0,1.89-4.94l-7-43.62a5.29,5.29,0,0,0-8.56-3.26l-34.26,27.9a5.25,5.25,0,0,0-1.88,4.94s0,.06,0,.09l-41.19,33.55a2,2,0,0,0,.55,3.43l96.16,36.6a2,2,0,0,0,2-.31A2,2,0,0,0,450.75,279.16Zm-53.82-73.3L431.19,178a1.23,1.23,0,0,1,1.25-.2,1.25,1.25,0,0,1,.81,1l7,43.63a1.25,1.25,0,0,1-.45,1.19,1.27,1.27,0,0,1-1.26.2,5.29,5.29,0,0,0-6.82,3.06l-4.14,10.89a2.43,2.43,0,1,1-4.55-1.73l1.78-4.67a11.95,11.95,0,0,0-22.33-8.5l-1.77,4.67a2.43,2.43,0,0,1-4.55-1.73l4.15-10.89a5.29,5.29,0,0,0-3.06-6.82,1.24,1.24,0,0,1-.8-1A1.21,1.21,0,0,1,396.93,205.86Zm-40.36,36.38,38.14-31.06a5.62,5.62,0,0,0,1.14.6,1.27,1.27,0,0,1,.74,1.64l-4.15,10.89a6.45,6.45,0,0,0,12.05,4.59l1.77-4.67a7.93,7.93,0,0,1,14.83,5.64l-1.78,4.67a6.45,6.45,0,0,0,12.05,4.59l4.14-10.89a1.28,1.28,0,0,1,1.65-.74,5.08,5.08,0,0,0,1.25.31l7.83,48.56-89.66-34.13Z"/><circle class="cls-19" cx="424.75" cy="258.85" r="2.01"/><circle class="cls-19" cx="376.76" cy="236.05" r="2.01"/><circle class="cls-19" cx="405.24" cy="247.43" r="2.01"/><circle class="cls-19" cx="414.32" cy="231.85" r="2.01"/></g><g id="nacho-verde"><path class="cls-20" d="M392.81,218.18a3.26,3.26,0,0,1,.77,1.51,3.35,3.35,0,0,1-.64,2.72,3.26,3.26,0,0,1-1.9,1.17,3.28,3.28,0,0,0-2.54,3.88l2.38,11.4a4.44,4.44,0,0,1-8.69,1.82l-1-4.89a9.94,9.94,0,0,0-19.46,4.06l1,4.89a4.44,4.44,0,1,1-8.69,1.81l-2.38-11.41a3.24,3.24,0,0,0-1.41-2.07,3.3,3.3,0,0,0-2.47-.47,3.19,3.19,0,0,1-2.21-.31,3.28,3.28,0,0,1-1.57-3.92l13.81-42a3.28,3.28,0,0,1,5.56-1.16Z"/><path class="cls-16" d="M392.94,222.41l36.32,40.64-100.72,21,17-51.78a3.19,3.19,0,0,0,2.21.31,3.3,3.3,0,0,1,2.47.47,3.24,3.24,0,0,1,1.41,2.07L354,246.55a4.44,4.44,0,0,0,8.69-1.81l-1-4.89a9.94,9.94,0,1,1,19.46-4.06l1,4.89a4.44,4.44,0,0,0,8.69-1.82l-2.38-11.4a3.28,3.28,0,0,1,2.54-3.88A3.26,3.26,0,0,0,392.94,222.41Z"/><polygon class="cls-17" points="350.25 233.07 337.85 282.5 328.54 284.07 345.57 232.29 350.25 233.07"/><polyline class="cls-21" points="350.25 233.07 361.59 184.06 357.81 186.4 344 228.37 345.57 232.29"/><path class="cls-18" d="M386.14,221.45a2,2,0,0,1-1.91-.62l-19.61-21.94a2,2,0,0,1,3-2.68l19.6,21.94a2,2,0,0,1-.15,2.84A2,2,0,0,1,386.14,221.45Z"/><path class="cls-18" d="M417.49,261.66a2,2,0,0,1-1.91-.63l-21-23.54a2,2,0,1,1,3-2.67l21,23.53a2,2,0,0,1-1.09,3.31Z"/><circle class="cls-18" cx="362.1" cy="193.05" r="2.01"/><path class="cls-19" d="M430.76,261.71l-35.4-39.6,0-.09a5.27,5.27,0,0,0-1.08-5.18L364.86,183.9a5.29,5.29,0,0,0-9,1.87l-13.81,42a5.24,5.24,0,0,0,1.08,5.18l.07.06-16.61,50.46a2,2,0,0,0,.41,2A2,2,0,0,0,329,286l100.72-21a2,2,0,0,0,1.09-3.31ZM345.9,229l13.81-42a1.27,1.27,0,0,1,2.16-.45l29.45,33a1.27,1.27,0,0,1,.26,1.24,1.25,1.25,0,0,1-.95.85,5.3,5.3,0,0,0-4.1,6.26l2.38,11.4a2.43,2.43,0,1,1-4.76,1l-1-4.89a11.94,11.94,0,1,0-23.38,4.88l1,4.89a2.43,2.43,0,0,1-4.76,1l-2.38-11.41a5.29,5.29,0,0,0-6.26-4.09,1.25,1.25,0,0,1-1.21-.4A1.27,1.27,0,0,1,345.9,229Zm-14.37,52.4,15.37-46.72a5.63,5.63,0,0,0,1.29-.11,1.28,1.28,0,0,1,1.51,1L352.08,247a6.45,6.45,0,0,0,12.62-2.63l-1-4.89a7.93,7.93,0,1,1,15.52-3.24l1,4.89a6.45,6.45,0,0,0,12.62-2.64l-2.38-11.4a1.28,1.28,0,0,1,1-1.51,5.47,5.47,0,0,0,1.22-.41l32.78,36.67-93.92,19.6Z"/><circle class="cls-19" cx="397.91" cy="258.62" r="2.01"/><circle class="cls-19" cx="345.2" cy="265.3" r="2.01"/><circle class="cls-19" cx="375.32" cy="259.53" r="2.01"/><circle class="cls-19" cx="374.57" cy="241.51" r="2.01"/></g><g id="taza"><path class="cls-4" d="M312.75,250.76A74.73,74.73,0,0,0,462,250.22Z"/><rect class="cls-4" x="364.59" y="319.46" width="46.14" height="9.01" transform="translate(-1.16 1.39) rotate(-0.21)"/><path d="M462,246.19l-131,.47-18.31.07a4.06,4.06,0,0,0-4,4,79.81,79.81,0,0,0,59.77,72.65l1.07-7.92-5,0a4.08,4.08,0,0,0-4,4l0,9a4.1,4.1,0,0,0,4,4l46.13-.17a4.08,4.08,0,0,0,4-4l0-9a4.08,4.08,0,0,0-4-4h-5l1.07,7.92a79.8,79.8,0,0,0,59.27-73.06c.28-5.18-7.78-5.17-8.06,0a71.55,71.55,0,0,1-53.35,65.29c-4.4,1.15-3.49,7.93,1.07,7.91h5l-4-4,0,9,4-4-46.13.17,4,4,0-9-4,4,5,0c4.49,0,5.54-6.77,1.07-7.91a71.57,71.57,0,0,1-53.85-64.88l-4,4,131-.47,18.3-.07C467.23,254.23,467.24,246.17,462,246.19Z"/></g></g></g></svg>