<svg xmlns="http://www.w3.org/2000/svg" width="160" height="160" fill="currentColor" class="bi bi-arrow-down-circle-fill" viewBox="0 0 16 16">
  <path d="M16 8A8 8 0 1 1 0 8a8 8 0 0 1 16 0zM8.5 4.5a.5.5 0 0 0-1 0v5.793L5.354 8.146a.5.5 0 1 0-.708.708l3 3a.5.5 0 0 0 .708 0l3-3a.5.5 0 0 0-.708-.708L8.5 10.293V4.5z"/>
</svg>


<svg xmlns="http://www.w3.org/2000/svg" width="156" height="159" viewBox="0 0 156 159">
  <defs>
    <clipPath id="clip-rotate">
      <rect width="156" height="159"/>
    </clipPath>
  </defs>
  <g id="rotate" clip-path="url(#clip-rotate)">
    <path id="right" d="M70.874,66.445A61.461,61.461,0,0,1,9.968,4.984,4.984,4.984,0,0,0,0,4.984,71.366,71.366,0,0,0,70.891,76.413l6.637-4.977ZM67.781,47.513,94.362,67.449a4.984,4.984,0,0,1,0,7.974L67.781,95.359A4.984,4.984,0,0,1,61.8,87.385L83.065,71.436,61.8,55.488a4.984,4.984,0,1,1,5.981-7.974Z" transform="translate(151.375 97.125) rotate(180)" fill="#fff"/>
    <g id="bar-graph" transform="translate(1 4)">
      <path id="Trazado_11483" data-name="Trazado 11483" d="M89.9,186.013a3.435,3.435,0,0,0,3.434,3.434h13.8a3.435,3.435,0,0,0,3.434-3.434V123.934a3.435,3.435,0,0,0-3.434-3.434h-13.8a3.435,3.435,0,0,0-3.434,3.434Zm6.869-58.644h6.926v55.209H96.768Z" transform="translate(-62.908 -62.86)" fill="#fff"/>
      <path id="Trazado_11484" data-name="Trazado 11484" d="M214.309,259.13h13.8a3.435,3.435,0,0,0,3.434-3.434V214.309a3.435,3.435,0,0,0-3.434-3.434h-13.8a3.435,3.435,0,0,0-3.434,3.434V255.7A3.435,3.435,0,0,0,214.309,259.13Zm3.434-41.386h6.926v34.517h-6.926Z" transform="translate(-156.185 -132.542)" fill="#fff"/>
      <path id="Trazado_11485" data-name="Trazado 11485" d="M335.285,212.675h13.8a3.435,3.435,0,0,0,3.434-3.434V154.059a3.435,3.435,0,0,0-3.434-3.434h-13.8a3.435,3.435,0,0,0-3.435,3.434V209.24A3.435,3.435,0,0,0,335.285,212.675Zm3.434-55.181h6.926v48.312h-6.926Z" transform="translate(-249.461 -86.087)" fill="#fff"/>
      <path id="Trazado_11486" data-name="Trazado 11486" d="M152.4,136.989l-9.045-9.045a4.5,4.5,0,1,0-6.369,6.369l1.356,1.357H18.051V15.376l1.357,1.357a4.5,4.5,0,1,0,6.369-6.369L16.732,1.319a4.5,4.5,0,0,0-6.369,0L1.319,10.364a4.5,4.5,0,0,0,6.369,6.369l1.357-1.357v124.8a4.5,4.5,0,0,0,4.5,4.5h124.8l-1.356,1.357a4.5,4.5,0,1,0,6.369,6.369l9.045-9.045a4.5,4.5,0,0,0,0-6.369Z" transform="translate(0 0)" fill="#fff"/>
    </g>
  </g>
</svg>

<svg xmlns="http://www.w3.org/2000/svg" xmlns:xlink="http://www.w3.org/1999/xlink" width="40" height="40" viewBox="0 0 156 159">
  <defs>
    <clipPath id="clip-rotate">
      <rect width="156" height="159"/>
    </clipPath>
  </defs>
  <g id="rotate" clip-path="url(#clip-rotate)">
    <path id="right" d="M70.874,66.445A61.461,61.461,0,0,1,9.968,4.984,4.984,4.984,0,0,0,0,4.984,71.366,71.366,0,0,0,70.891,76.413l6.637-4.977ZM67.781,47.513,94.362,67.449a4.984,4.984,0,0,1,0,7.974L67.781,95.359A4.984,4.984,0,0,1,61.8,87.385L83.065,71.436,61.8,55.488a4.984,4.984,0,1,1,5.981-7.974Z" transform="translate(151.375 97.125) rotate(180)" fill="#fff"/>
    <g id="bar-graph" transform="translate(1 4)">
      <path id="Trazado_11483" data-name="Trazado 11483" d="M89.9,186.013a3.435,3.435,0,0,0,3.434,3.434h13.8a3.435,3.435,0,0,0,3.434-3.434V123.934a3.435,3.435,0,0,0-3.434-3.434h-13.8a3.435,3.435,0,0,0-3.434,3.434Zm6.869-58.644h6.926v55.209H96.768Z" transform="translate(-62.908 -62.86)" fill="#fff"/>
      <path id="Trazado_11484" data-name="Trazado 11484" d="M214.309,259.13h13.8a3.435,3.435,0,0,0,3.434-3.434V214.309a3.435,3.435,0,0,0-3.434-3.434h-13.8a3.435,3.435,0,0,0-3.434,3.434V255.7A3.435,3.435,0,0,0,214.309,259.13Zm3.434-41.386h6.926v34.517h-6.926Z" transform="translate(-156.185 -132.542)" fill="#fff"/>
      <path id="Trazado_11485" data-name="Trazado 11485" d="M335.285,212.675h13.8a3.435,3.435,0,0,0,3.434-3.434V154.059a3.435,3.435,0,0,0-3.434-3.434h-13.8a3.435,3.435,0,0,0-3.435,3.434V209.24A3.435,3.435,0,0,0,335.285,212.675Zm3.434-55.181h6.926v48.312h-6.926Z" transform="translate(-249.461 -86.087)" fill="#fff"/>
      <path id="Trazado_11486" data-name="Trazado 11486" d="M152.4,136.989l-9.045-9.045a4.5,4.5,0,1,0-6.369,6.369l1.356,1.357H18.051V15.376l1.357,1.357a4.5,4.5,0,1,0,6.369-6.369L16.732,1.319a4.5,4.5,0,0,0-6.369,0L1.319,10.364a4.5,4.5,0,0,0,6.369,6.369l1.357-1.357v124.8a4.5,4.5,0,0,0,4.5,4.5h124.8l-1.356,1.357a4.5,4.5,0,1,0,6.369,6.369l9.045-9.045a4.5,4.5,0,0,0,0-6.369Z" transform="translate(0 0)" fill="#fff"/>
    </g>
  </g>
</svg>
