<?xml version="1.0" encoding="utf-8"?>
<!-- Generator: Adobe Illustrator 24.0.0, SVG Export Plug-In . SVG Version: 6.00 Build 0)  -->
<svg width="40"  id="icono" xmlns="http://www.w3.org/2000/svg" xmlns:xlink="http://www.w3.org/1999/xlink" x="0px" y="0px"
	 viewBox="0 0 153.7 156.9">
<style type="text/css">
	.st0{fill:#FFFFFF;}
</style>
<path id="right" class="st0" d="M79.5,29.9c33.7,0.3,60.9,27.7,60.9,61.5c0,2.8,2.2,5,5,5c2.8,0,5-2.2,5-5
	c0-39.3-31.6-71.2-70.9-71.4l-6.6,5L79.5,29.9z M82.6,48.8L56,28.9c-2.2-1.7-2.6-4.8-1-7c0.3-0.4,0.6-0.7,1-1L82.6,1
	c2.2-1.6,5.3-1.2,7,1c1.6,2.2,1.2,5.3-1,6.9L67.3,24.9l21.3,15.9c2.2,1.6,2.7,4.8,1,7C88,50,84.9,50.5,82.6,48.8
	C82.6,48.8,82.6,48.8,82.6,48.8L82.6,48.8z"/>
<path id="Trazado_11483" class="st0" d="M27,126.4c0,1.9,1.5,3.4,3.4,3.4h13.8c1.9,0,3.4-1.5,3.4-3.4V64.3c0-1.9-1.5-3.4-3.4-3.4
	H30.4c-1.9,0-3.4,1.5-3.4,3.4V126.4z M33.9,67.7h6.9v55.2h-6.9L33.9,67.7z"/>
<path id="Trazado_11484" class="st0" d="M58.1,129.8h13.8c1.9,0,3.4-1.5,3.4-3.4V85c0-1.9-1.5-3.4-3.4-3.4H58.1
	c-1.9,0-3.4,1.5-3.4,3.4v41.4C54.7,128.3,56.2,129.8,58.1,129.8z M61.6,88.4h6.9v34.5h-6.9V88.4z"/>
<path id="Trazado_11485" class="st0" d="M85.8,129.8h13.8c1.9,0,3.4-1.5,3.4-3.4V71.2c0-1.9-1.5-3.4-3.4-3.4H85.8
	c-1.9,0-3.4,1.5-3.4,3.4v55.2C82.4,128.3,83.9,129.8,85.8,129.8z M89.3,74.6h6.9v48.3h-6.9V74.6z"/>
<path id="Trazado_11486" class="st0" d="M152.4,140.2l-9-9c-1.8-1.8-4.6-1.8-6.4,0s-1.8,4.6,0,6.4l1.4,1.4H18.1V18.6l1.4,1.4
	c1.8,1.8,4.6,1.8,6.4,0s1.8-4.6,0-6.4l-9-9c-1.8-1.8-4.6-1.8-6.4,0c0,0,0,0,0,0l-9,9c-1.8,1.8-1.8,4.6,0,6.4s4.6,1.8,6.4,0l0,0
	L9,18.6v124.8c0,2.5,2,4.5,4.5,4.5h124.8l-1.4,1.4c-1.8,1.8-1.8,4.6,0,6.4s4.6,1.8,6.4,0l0,0l9-9C154.2,144.8,154.2,142,152.4,140.2
	C152.4,140.2,152.4,140.2,152.4,140.2L152.4,140.2z"/>
</svg>
