<svg xmlns="http://www.w3.org/2000/svg" viewBox="0 0 207.31 84.01"><defs><style>.cls-1{fill:#fed2a4;}</style></defs><title>brazo</title><g id="Capa_2" data-name="Capa 2"><g id="personaje-mexicano"><g id="brazo"><path class="cls-1" d="M184.5,11v-.28l-78,17.34L30.85,6.76l-28-3.68s43.53,101.3,109.55,73.07c37-15.82,66.08-42.3,70.71-46.49,2.67,1.81,21.53,14.35,21.17,6.74-.24-5-.17-14.1-.09-20.44a6.21,6.21,0,0,0-6.85-6.24A11.6,11.6,0,0,0,196.73,5C194.72-.73,187.72,7,184.5,11Z"/><path d="M187.52,11v-.28a3,3,0,0,0-3.82-2.91c-25.38,5.64-51.17,10.32-76.3,17a7.6,7.6,0,0,0-1.43.32c-.55.26,1.71.51,1,0-.92-.73-3.31-.93-4.42-1.24L82.25,18.11,36.39,5.18C25.56,2.12,14,1.52,2.89.06.33-.28-.5,2.81.28,4.61A178.07,178.07,0,0,0,36.34,58.33c11.2,11.32,25,21.13,40.79,24.5,20.57,4.37,39.14-4.07,56.8-13.93a281.71,281.71,0,0,0,51.36-37.1l-3.66.47c4.81,3.25,18.44,13.79,24.21,8.17,1.62-1.57,1.49-3.71,1.44-5.79-.11-4.24-.11-8.49-.09-12.74,0-3.73.68-7.89-1.52-11.17a9.68,9.68,0,0,0-8.29-4l3,3c0-4.22-1.34-10.28-6.76-9.68-4.69.52-8.55,5.5-11.29,8.86-2.43,3,1.82,7.3,4.28,4.28a49.64,49.64,0,0,1,3.86-4.34c.54-.52,1.39-1.62,2.09-1.86.73-.9,1.18-.78,1.34.34a2.86,2.86,0,0,1,.43,2.4,3.06,3.06,0,0,0,3,3c5.79,0,3.74,12.31,3.76,16.28q0,3.42.14,6.82c0,1.24,1.1,0,.56,0a8.82,8.82,0,0,1-2-.44c-5.43-1.59-10.55-5.18-15.2-8.32a3.06,3.06,0,0,0-3.66.47A279.93,279.93,0,0,1,140.69,57.9c-17.14,10.62-37,22.53-58,19.79C52.87,73.8,31,46.35,16.44,22.28A176.55,176.55,0,0,1,5.5,1.56L2.89,6.1,22.56,8.69c2.7.35,5.51.52,8.18,1.07-1.69-.34,1.34.48,1.86.63L76.47,22.76l22,6.22c2.79.79,6,2.29,9,2,4.12-.41,8.38-1.86,12.41-2.76l24.49-5.44,40.94-9.1-3.82-2.92V11C181.33,14.93,187.37,14.92,187.52,11Z"/></g></g></g></svg>