<svg xmlns="http://www.w3.org/2000/svg" viewBox="0 0 100.17 107.84"><defs><style>.cls-1{fill:#ba2a17;}.cls-2{fill:#fc763f;}.cls-3{fill:#fc8c65;}.cls-4{fill:#ea8d86;}.cls-5{fill:#fff;}.cls-6{fill:#333;}</style></defs><title>nacho-rojo</title><g id="Capa_2" data-name="Capa 2"><g id="personaje-mexicano"><g id="nacho-rojo"><path class="cls-1" d="M91.66,48.4a3.25,3.25,0,0,1-.16,1.68,3.3,3.3,0,0,1-2,1.94,3.23,3.23,0,0,1-2.23,0A3.28,3.28,0,0,0,83,53.88L78.88,64.77a4.44,4.44,0,1,1-8.29-3.16l1.78-4.67a9.94,9.94,0,0,0-18.58-7.07L52,54.54A4.39,4.39,0,0,1,49.68,57a4.44,4.44,0,0,1-6-5.63l4.14-10.89A3.27,3.27,0,0,0,46,36.26a3.27,3.27,0,0,1-.91-5.61L79.32,2.75a3.28,3.28,0,0,1,5.31,2Z"/><path class="cls-2" d="M89.49,52l8.68,53.81L2,69.23,44.27,34.81A3.27,3.27,0,0,0,46,36.26a3.27,3.27,0,0,1,1.89,4.23L43.72,51.38a4.44,4.44,0,0,0,6,5.63A4.39,4.39,0,0,0,52,54.54l1.78-4.67a9.94,9.94,0,0,1,18.58,7.07l-1.78,4.67a4.44,4.44,0,1,0,8.29,3.16L83,53.88A3.28,3.28,0,0,1,87.26,52,3.23,3.23,0,0,0,89.49,52Z"/><polygon class="cls-3" points="47.79 37.98 10.7 72.93 2.01 69.23 44.27 34.81 47.79 37.98"/><polyline class="cls-4" points="47.79 37.98 83.77 2.82 79.32 2.75 45.06 30.66 44.27 34.81"/><path class="cls-5" d="M84.28,47.55A2,2,0,0,1,83,46L78.33,17a2,2,0,0,1,4-.64L87,45.36a2,2,0,0,1-1.66,2.3A1.89,1.89,0,0,1,84.28,47.55Z"/><path class="cls-5" d="M89,98.31a2,2,0,0,1-1.27-1.55l-5-31.16a2,2,0,0,1,4-.64l5,31.16A2,2,0,0,1,90,98.42,1.89,1.89,0,0,1,89,98.31Z"/><circle class="cls-5" cx="79.35" cy="10.67" r="2.01"/><path class="cls-6" d="M100.15,105.51,91.69,53.07l.08-.06a5.24,5.24,0,0,0,1.88-4.94l-7-43.62a5.29,5.29,0,0,0-8.56-3.26L43.79,29.1A5.24,5.24,0,0,0,41.91,34a.29.29,0,0,1,0,.09L.74,67.68A2,2,0,0,0,0,69.55a2,2,0,0,0,1.26,1.56l96.16,36.6a2,2,0,0,0,2.7-2.2ZM46.33,32.21,80.59,4.31a1.27,1.27,0,0,1,2.06.78l7,43.62A1.27,1.27,0,0,1,88,50.1a5.3,5.3,0,0,0-6.82,3.06L77,64.05a2.43,2.43,0,1,1-4.55-1.73l1.78-4.66a11.95,11.95,0,0,0-22.33-8.5l-1.77,4.67a2.43,2.43,0,0,1-4.55-1.73l4.15-10.89a5.29,5.29,0,0,0-3.06-6.82,1.24,1.24,0,0,1-.8-1A1.22,1.22,0,0,1,46.33,32.21ZM6,68.59,44.11,37.53a5.2,5.2,0,0,0,1.14.61A1.27,1.27,0,0,1,46,39.78L41.84,50.67a6.45,6.45,0,0,0,12,4.58l1.78-4.66a7.93,7.93,0,1,1,14.82,5.64L68.71,60.9a6.45,6.45,0,0,0,12.05,4.58l4.15-10.89a1.27,1.27,0,0,1,1.64-.73,6.18,6.18,0,0,0,1.25.31l7.83,48.55L6,68.59Z"/><circle class="cls-6" cx="74.15" cy="85.2" r="2.01"/><circle class="cls-6" cx="26.16" cy="62.4" r="2.01"/><circle class="cls-6" cx="54.64" cy="73.79" r="2.01"/><circle class="cls-6" cx="63.72" cy="58.2" r="2.01"/></g></g></g></svg>