<svg xmlns="http://www.w3.org/2000/svg" viewBox="0 0 104.73 103.95"><defs><style>.cls-1{fill:#9ad14b;}.cls-2{fill:#fc763f;}.cls-3{fill:#fc8c65;}.cls-4{fill:#90bc42;}.cls-5{fill:#fff;}.cls-6{fill:#333;}</style></defs><title>nacho-verde</title><g id="Capa_2" data-name="Capa 2"><g id="personaje-mexicano"><g id="nacho-verde"><path class="cls-1" d="M66.28,36.05a3.21,3.21,0,0,1,.77,1.51,3.32,3.32,0,0,1-.65,2.72,3.23,3.23,0,0,1-1.9,1.17A3.27,3.27,0,0,0,62,45.32l2.38,11.41a4.44,4.44,0,0,1-8.69,1.82l-1-4.89a9.94,9.94,0,1,0-19.46,4.06l1,4.89a4.44,4.44,0,1,1-8.69,1.81L25.13,53a3.24,3.24,0,0,0-1.41-2.07,3.3,3.3,0,0,0-2.47-.47A3.19,3.19,0,0,1,19,50.16a3.26,3.26,0,0,1-1.57-3.92l13.81-42A3.27,3.27,0,0,1,36.83,3.1Z"/><path class="cls-2" d="M66.4,40.28l36.33,40.64L2,101.94,19,50.16a3.19,3.19,0,0,0,2.21.31,3.3,3.3,0,0,1,2.47.47A3.24,3.24,0,0,1,25.13,53l2.38,11.41a4.44,4.44,0,0,0,8.69-1.81l-1-4.89a9.94,9.94,0,1,1,19.46-4.06l1,4.89a4.44,4.44,0,0,0,8.69-1.82L62,45.32a3.27,3.27,0,0,1,2.53-3.87A3.23,3.23,0,0,0,66.4,40.28Z"/><polygon class="cls-3" points="23.72 50.94 11.32 100.37 2.01 101.94 19.04 50.16 23.72 50.94"/><polyline class="cls-4" points="23.72 50.94 35.05 1.93 31.28 4.26 17.46 46.24 19.04 50.16"/><path class="cls-5" d="M59.61,39.32a2,2,0,0,1-1.91-.62L38.09,16.76a2,2,0,0,1,.16-2.83,2,2,0,0,1,2.84.15L60.69,36a2,2,0,0,1-1.08,3.3Z"/><path class="cls-5" d="M91,79.52a2,2,0,0,1-1.91-.62L68,55.36a2,2,0,1,1,3-2.67L92,76.22a2,2,0,0,1-.15,2.84A2,2,0,0,1,91,79.52Z"/><circle class="cls-5" cx="35.57" cy="10.92" r="2.01"/><path class="cls-6" d="M104.22,79.58,68.82,40l0-.09a5.27,5.27,0,0,0-1.08-5.18L38.33,1.77a5.28,5.28,0,0,0-9,1.87l-13.81,42a5.22,5.22,0,0,0,1.08,5.17l.06.07L.1,101.31a2,2,0,0,0,2.32,2.6l100.72-21a2,2,0,0,0,1.49-1.33A2,2,0,0,0,104.22,79.58ZM19.37,46.87l13.81-42a1.27,1.27,0,0,1,2.16-.45l29.44,33A1.22,1.22,0,0,1,65,38.63a1.26,1.26,0,0,1-.94.85A5.29,5.29,0,0,0,60,45.73l2.38,11.41a2.43,2.43,0,1,1-4.76,1l-1-4.88a11.94,11.94,0,1,0-23.38,4.88l1,4.89a2.43,2.43,0,0,1-4.76,1L27.1,52.6a5.3,5.3,0,0,0-6.26-4.09,1.27,1.27,0,0,1-1.47-1.64ZM5,99.27,20.37,52.55a5.63,5.63,0,0,0,1.29-.11,1.28,1.28,0,0,1,1.51,1l2.38,11.41A6.44,6.44,0,1,0,38.16,62.2l-1-4.89a7.93,7.93,0,1,1,15.53-3.24l1,4.89a6.45,6.45,0,0,0,12.62-2.64L63.93,44.91a1.27,1.27,0,0,1,1-1.5A5,5,0,0,0,66.14,43L98.91,79.67,5,99.27Z"/><circle class="cls-6" cx="71.38" cy="76.49" r="2.01"/><circle class="cls-6" cx="18.66" cy="83.17" r="2.01"/><circle class="cls-6" cx="48.79" cy="77.4" r="2.01"/><circle class="cls-6" cx="48.04" cy="59.38" r="2.01"/></g></g></g></svg>