<svg xmlns="http://www.w3.org/2000/svg" xmlns:xlink="http://www.w3.org/1999/xlink" viewBox="0 0 326.59 511.94"><defs><style>.cls-1,.cls-15,.cls-16,.cls-5{fill:none;}.cls-2,.cls-6{fill:#ba2a17;}.cls-15,.cls-16,.cls-2,.cls-5{stroke:#000;}.cls-15,.cls-16,.cls-2{stroke-miterlimit:10;}.cls-15,.cls-2{stroke-width:4.03px;}.cls-3{fill:#fed2a4;}.cls-4{fill:#e9e9e9;}.cls-16,.cls-5{stroke-linecap:round;}.cls-5{stroke-linejoin:round;stroke-width:3.78px;}.cls-7{fill:#36d39a;}.cls-8{fill:#00b661;}.cls-9{fill:#ea8d86;}.cls-10{fill:#c5c3c9;}.cls-11{clip-path:url(#clip-path);}.cls-12{fill:#00bed6;}.cls-13{fill:#00a7c3;}.cls-14{fill:#ffbd86;}.cls-16{stroke-width:3px;}</style><clipPath id="clip-path"><rect class="cls-1" x="102.65" y="309.79" width="122.79" height="129.1" transform="translate(-1.34 0.59) rotate(-0.21)"/></clipPath></defs><title>personaje_1</title><g id="Capa_2" data-name="Capa 2"><g id="personaje-mexicano"><polygon class="cls-2" points="186.69 508.49 139.94 508.49 126.5 413.81 200.12 413.81 186.69 508.49"/><polygon class="cls-3" points="134.87 472.74 139.94 508.49 186.69 508.49 191.76 472.74 134.87 472.74"/><path class="cls-3" d="M115.55,436.78l-.06-.61-.75,0-.55-.41-.16.38L104,435.74s-9.55,13.73-4.38,13.48c3.15-.15,8.9-.12,12.89-.07a3.9,3.9,0,0,0,3.93-4.3,7.45,7.45,0,0,0,3-.41C123,443.18,118.09,438.79,115.55,436.78Z"/><path class="cls-3" d="M111.46,329S62.19,366.67,73.6,391.74s29.9,44.6,29.9,44.6l11.54.39Z"/><path d="M114.87,438.74H115a2,2,0,0,0,2-2l-3.13-94.11-.45-13.6c0-1.36-1.75-2.72-3-1.74a153.61,153.61,0,0,0-28.66,28.47c-5.42,7.14-10.5,15.4-11.67,24.46-1.43,11.11,5.86,21.5,11.47,30.46a185.28,185.28,0,0,0,20.12,26.69l-.32-2.45c-2,3-8.91,12-4.89,15.52,2.53,2.2,9.46.66,12.45.67,4.69,0,8.45-1,8.81-6.31l-2,2c2.61-.09,6.09-.66,6.21-3.9s-3.51-5.87-5.66-7.61c-2-1.62-4.86,1.21-2.85,2.85.39.31,5.76,4.51,2.3,4.63a2.07,2.07,0,0,0-2,2c-.22,3.27-9,2.27-10.94,2.3-.68,0-3.22.52-3.85.11,1.12.72.34-.21.94-1.3,1.64-3,3.06-6.07,5-8.95a2,2,0,0,0-.31-2.44,175.67,175.67,0,0,1-15.65-20A169.16,169.16,0,0,1,78.4,397c-2.34-4.52-4.63-8.86-4.49-14.07.46-16.7,16.11-32,27.49-42.61q3.88-3.63,8-7a21.59,21.59,0,0,0,2.4-2c.18-.21,1.34-1,.72-.58l-3-1.74,3.13,94.11.45,13.6,2-2h-.17C112.27,434.62,112.28,438.65,114.87,438.74Z"/><path class="cls-4" d="M120.61,417.77l0,15a4.12,4.12,0,0,0,8.24,0l-.05-15Z"/><path class="cls-4" d="M140.39,417.7l.06,15a4.12,4.12,0,1,0,8.24,0l-.06-15Z"/><path class="cls-4" d="M160.18,417.63l0,15a4.12,4.12,0,1,0,8.24,0l-.05-15Z"/><path class="cls-4" d="M180,417.56l.06,15a4.12,4.12,0,1,0,8.24,0l-.06-15Z"/><path class="cls-4" d="M208,417.46l0,15a4.12,4.12,0,1,1-8.24,0l-.05-15Z"/><path class="cls-5" d="M144.55,357.63v3.53m39.05-3.67,0,3.53m-14.71-.19a6.52,6.52,0,0,1-9.65,0"/><path class="cls-6" d="M209.75,403.81l-9.18,3.94-6.23.4-10.55-4.25-8,.63-6.5,4-5,.88-6.14-2.14L150.88,404h-4.54l-5.68,2.3-6.22,2.46-5-.58L122.52,405l-4.11-1-3.69,4.11,1.48,10.25a4.45,4.45,0,0,0,4.42,3.81l87.38-.31a4.46,4.46,0,0,0,4.4-3.85l1.41-10.26Z"/><path class="cls-7" d="M214.86,400.06l3-21.6-5.95-6.28-6.25,2.59L196,378.23l-5.55-2-10.93-3.36-5.6,2.27-10.49,3.19-8.38-3.55-7.23-2-16.52,5.62-10.82-5.27-6.25,0-3.77,5.63,3.12,21.58,5.38,4,8.24,3.48,5.49.84,7.53-2.2,6.59-3,5.49,1,10.39,4.84,10.53-3,7.53-2.83,8.49,2.77,5.5,2.92,6.33-1.65,6.85-3.28Z"/><path class="cls-6" d="M218.92,370.41l2.86-20.86-3-5.76-6.37-2-11.3,4-5.05,1.6-7.81-2.45L180,341.7l-10.19,3.81-5.73,2-7-2.46-8.58-3.31-9.42,3-6.59,2.92-9.43-2.86-6.78-2.91-5.93,1.74-4,6.38,3,20.84,4.93,2.41,6.25,0,10.82,5.27L143,374.14l4.88-1.3,6.17,1.52,9.44,4,9.68-2.87,6.41-2.59,6.52,1.78,10,3.56,9.58-3.46,6.25-2.59Z"/><path class="cls-7" d="M105.17,341.92l-.41-2.85a9.93,9.93,0,0,1,2.94-8.57c10.28-9.88,26.14-16.35,32.68-18.75a4.12,4.12,0,0,1,4.72,1.43c3.19,4.38,10.28,13.49,17,18.13a3.26,3.26,0,0,0,3.76,0c6.69-4.69,13.72-13.85,16.88-18.25a4.09,4.09,0,0,1,4.71-1.46c6.56,2.34,22.46,8.71,32.81,18.51a9.93,9.93,0,0,1,3,8.54l-.39,2.85-4.07,2.3-6.37-2-11.3,4-5.05,1.6-7.81-2.45L180,341.7l-10.19,3.81-5.73,2-7-2.46-8.58-3.31-9.42,3-6.59,2.92-9.43-2.86-6.78-2.91-5.93,1.74Z"/><path class="cls-8" d="M112.57,342.93l-2.2-14.81c-.37.31-1.73,1.51-1.85,1.62l-.82.76a9.93,9.93,0,0,0-2.94,8.57v.06l.41,2.79Z"/><path class="cls-9" d="M112.57,342.93l-2.2.65-4,6.38,3,20.84,4.93,2.41h2.8Z"/><path class="cls-4" d="M222.89,341.49l-1.11,8.06-6-3a8.37,8.37,0,0,0-7.37,0l-5.21,2.6a16.09,16.09,0,0,1-14.21.05l-5.23-2.56a8.35,8.35,0,0,0-7.36,0l-5.21,2.6a16.16,16.16,0,0,1-14.21.05l-5.23-2.57a8.37,8.37,0,0,0-7.37,0l-5.2,2.6a16.09,16.09,0,0,1-14.21.05l-5.23-2.56a8.34,8.34,0,0,0-7.37,0l-6,3-1.16-8,3.73-1.87a16.16,16.16,0,0,1,14.21-.05l5.22,2.57a8.37,8.37,0,0,0,7.37,0l5.21-2.6a16.09,16.09,0,0,1,14.21-.05l5.23,2.56a8.31,8.31,0,0,0,7.36,0l5.21-2.61a16.16,16.16,0,0,1,14.21-.05l5.23,2.57a8.35,8.35,0,0,0,7.36,0l5.21-2.6a16.09,16.09,0,0,1,14.21,0Z"/><path class="cls-8" d="M113.62,400.43l5.38,4,2.88,1.22-4.81-32.41h-2.8l-3.77,5.63Z"/><path class="cls-4" d="M218.92,370.41l-1.1,8-2-1a8.34,8.34,0,0,0-7.37,0l-5.21,2.6a16.09,16.09,0,0,1-14.21.05l-5.22-2.56a8.37,8.37,0,0,0-7.37,0l-5.21,2.6a16.12,16.12,0,0,1-14.21.05l-5.23-2.57a8.35,8.35,0,0,0-7.36,0l-5.21,2.6a16.09,16.09,0,0,1-14.21,0l-5.23-2.56a8.37,8.37,0,0,0-7.37,0l-2,1-1.16-8a16.15,16.15,0,0,1,13.88.11l5.22,2.57a8.37,8.37,0,0,0,7.37,0l5.21-2.6a16.12,16.12,0,0,1,14.21-.05l5.23,2.56a8.31,8.31,0,0,0,7.36,0l5.21-2.6a16.09,16.09,0,0,1,14.21-.05l5.23,2.56a8.37,8.37,0,0,0,7.37,0l5.2-2.6a16.15,16.15,0,0,1,13.88-.21Z"/><path class="cls-9" d="M120.62,422.12l7.57,0a4.47,4.47,0,0,1-4.43-3.82l-2-13.49-3.35-.84-3.69,4.11s1.58,10.79,1.67,11a4.46,4.46,0,0,0,4.23,3Z"/><path class="cls-4" d="M214.86,400.06l-1.05,7.64a8.39,8.39,0,0,0-5.21.73L203.39,411a16.16,16.16,0,0,1-14.21,0L184,408.52a8.37,8.37,0,0,0-7.37,0l-5.21,2.6a16.09,16.09,0,0,1-14.21.05l-5.23-2.56a8.31,8.31,0,0,0-7.36,0l-5.21,2.61a16.16,16.16,0,0,1-14.21.05l-5.23-2.57a8.24,8.24,0,0,0-5.21-.69l-1.1-7.64a16.15,16.15,0,0,1,9.71,1.41l5.22,2.56a8.37,8.37,0,0,0,7.37,0l5.21-2.59a16.12,16.12,0,0,1,14.21-.06l5.23,2.57a8.37,8.37,0,0,0,7.37,0l5.2-2.6a16.09,16.09,0,0,1,14.21,0l5.23,2.56a8.34,8.34,0,0,0,7.37,0l5.2-2.6a16.1,16.1,0,0,1,9.71-1.48Z"/><path class="cls-10" d="M122.54,410,121.19,401a16.19,16.19,0,0,0-7.57-.55l1.1,7.64a8.24,8.24,0,0,1,5.21.69Z"/><path class="cls-10" d="M117.65,377.13l-1.16-7.83a16.13,16.13,0,0,0-7.15,1.5l1.16,8,2-1a8.37,8.37,0,0,1,5.2-.74Z"/><path class="cls-10" d="M112,338.91a15.78,15.78,0,0,0-3.07,1.14l-3.73,1.87,1.16,8s6.52-3.24,6.79-3.34Z"/><g class="cls-11"><path d="M130.1,318.12c4.48-2.13,8.41-3.67,10.92-4.59a2.22,2.22,0,0,1,2.55.77c3.59,4.91,10.63,13.85,17.46,18.57a5.25,5.25,0,0,0,5.92,0c6.81-4.77,13.78-13.76,17.34-18.7a2.23,2.23,0,0,1,2.54-.79,122.08,122.08,0,0,1,21.07,9.88,1.89,1.89,0,0,0,2-3.24,125.83,125.83,0,0,0-21.76-10.2,6,6,0,0,0-6.88,2.14c-2.75,3.82-9.86,13.2-16.44,17.81a1.38,1.38,0,0,1-1.59,0c-6.62-4.57-13.79-13.9-16.57-17.7a6,6,0,0,0-6.89-2.08c-2.59.94-6.64,2.53-11.25,4.72a1.89,1.89,0,0,0,1.62,3.42Z"/><path d="M123.56,321.48a1.89,1.89,0,1,0-1.84-3.3,74.08,74.08,0,0,0-15.33,11,11.82,11.82,0,0,0-3.51,10.19l11.45,79.24a6.36,6.36,0,0,0,4.41,5.15l0,9.07a6,6,0,0,0,12,0l0-8.77,7.76,0,0,8.77a6,6,0,0,0,12,0l0-8.78,7.76,0,0,8.77a6,6,0,1,0,12,0l0-8.77,7.76,0,0,8.77a6,6,0,1,0,12-.05l0-8.77,7.76,0,0,8.78a6,6,0,1,0,12-.05l0-9.07a6.34,6.34,0,0,0,4.37-5.17l10.88-79.32a11.82,11.82,0,0,0-3.57-10.17,59.56,59.56,0,0,0-5.45-4.54,1.89,1.89,0,0,0-2.25,3,54.94,54.94,0,0,1,5.09,4.24,8.12,8.12,0,0,1,2.43,6.91l0,.26a20.68,20.68,0,0,0-9.34-2.5c-4.84,0-8.95,2.38-13.15,4.48a6.49,6.49,0,0,1-5.69,0L188,338.07a18.13,18.13,0,0,0-15.89.06l-5.21,2.6a6.46,6.46,0,0,1-5.69,0L156,338.19a18.2,18.2,0,0,0-15.89.06c-1.83.91-3.65,1.94-5.54,2.75a6.49,6.49,0,0,1-5.35-.13c-1.9-.93-3.77-1.91-5.69-2.79a18.19,18.19,0,0,0-15.43.28l-1.38.69,0-.26a8,8,0,0,1,2.38-6.92,70.48,70.48,0,0,1,14.55-10.39Zm3.92,22.83a10.77,10.77,0,0,0,9.07-.08c3.67-1.83,7.23-4.06,11.46-4.08s7.77,2.17,11.41,4a10.37,10.37,0,0,0,9.14,0l5.21-2.61a14.28,14.28,0,0,1,12.53,0c4.3,2.11,9.06,4.8,13.9,2.71,2.11-.92,4.07-2.13,6.18-3.06a14.33,14.33,0,0,1,11.93.23l2.52,1.24-.57,4.1-3.68-1.81a10.41,10.41,0,0,0-9.05,0l-5.2,2.6c-6.34,3.16-12,.31-17.76-2.52-2.55-1.25-6.56-1.64-9,0l-5.2,2.6a14.32,14.32,0,0,1-11.81.38c-3.44-1.45-6.57-3.95-10.48-3.93-3.57,0-6.65,2.13-9.73,3.67-6.35,3.17-12,.31-17.76-2.52-3.64-1.79-7.25-.87-10.7.86l-2,1-.6-4.09,2.51-1.26a14.28,14.28,0,0,1,12.53,0c1.73.84,3.42,1.87,5.21,2.61Zm80.26,62.39c-1.78.76-3.51,1.8-5.19,2.64a14.19,14.19,0,0,1-6.26,1.48c-4.19,0-7.83-2.2-11.5-4a10.3,10.3,0,0,0-8.11-.37,67,67,0,0,0-6.14,3,14.22,14.22,0,0,1-6.27,1.47c-4.17,0-7.83-2.19-11.49-4a10.34,10.34,0,0,0-9.05,0c-3.66,1.83-7.2,4.06-11.47,4.08s-7.83-2.2-11.5-4a10.1,10.1,0,0,0-4.42-1l-.57-3.91H116c3.36-.06,6.18,1.26,9.12,2.71,2.31,1.13,4.49,2.32,7.14,2.31,3.51,0,6.68-2.15,9.72-3.67a14.3,14.3,0,0,1,12.54,0c3.06,1.5,6.22,3.61,9.75,3.6s6.69-2.15,9.73-3.67a14.25,14.25,0,0,1,12.53,0c3.09,1.51,6.14,3.61,9.75,3.59s6.63-2.2,9.73-3.67a14.85,14.85,0,0,1,6.71-1.46l-.53,3.91a11.72,11.72,0,0,0-4.44,1ZM111.5,372a15.08,15.08,0,0,1,4.62-.78c4.15,0,7.84,2.2,11.49,4a10.34,10.34,0,0,0,9,0l5.2-2.6a14.3,14.3,0,0,1,12.54,0c3.13,1.53,6.4,3.77,10,3.52,3.41-.24,6.46-2.1,9.45-3.59a14.28,14.28,0,0,1,12.53-.05l5.23,2.57a10.32,10.32,0,0,0,9,0l5.21-2.6a14.27,14.27,0,0,1,11-.69l-.55,4-.08,0a10.26,10.26,0,0,0-8.58.25l-5.2,2.6a14.24,14.24,0,0,1-11.19.61c-3.68-1.34-6.95-4.18-11.1-4.17-3.44,0-6.69,2.16-9.72,3.67a14.27,14.27,0,0,1-6.27,1.48c-4.22,0-7.83-2.19-11.49-4a10.28,10.28,0,0,0-9,0l-5.21,2.6c-3.51,1.75-9.07,2.34-12.53,0a53.07,53.07,0,0,0-6.47-3.07A10.49,10.49,0,0,0,112,376c-.12-1.33-.38-2.67-.57-4l.08,0Zm1.8,7.6,0,0c3.72-1.82,7.56.93,10.88,2.56A18,18,0,0,0,140.1,382l5.21-2.6a6.5,6.5,0,0,1,5.69,0,62.91,62.91,0,0,0,7.25,3.4,18.13,18.13,0,0,0,13.86-.89l5.21-2.6a6.49,6.49,0,0,1,5.69,0c2.15,1.05,4.28,2.25,6.51,3.13a18.17,18.17,0,0,0,13.56-.15c2.07-.86,4.19-2.05,6.26-3.08a7,7,0,0,1,6.42.34L213.23,398c-5.3-.27-9.55,2.17-14.13,4.45-3.87,1.93-7.55-.89-10.91-2.54a18.12,18.12,0,0,0-9.5-1.75c-4.41.4-7.93,2.86-11.93,4.56a6.63,6.63,0,0,1-5.36-.13L156.17,400a18,18,0,0,0-15.88.05l-5.21,2.6c-2.43,1.21-4.72.5-7-.62-4.18-2-8.06-4-12.86-3.71l-2.66-18.42Zm104.07-11.75-.28-.08a18,18,0,0,0-12.89,1.2,62.94,62.94,0,0,1-5.77,2.84,6.49,6.49,0,0,1-5.13-.22L188.07,369a18.13,18.13,0,0,0-15.89.05l-5.2,2.6a6.46,6.46,0,0,1-5.69,0l-5.23-2.56a18.1,18.1,0,0,0-15.89.06l-5.2,2.6a6.5,6.5,0,0,1-5.69,0l-5.23-2.57a18.16,18.16,0,0,0-13.18-1L108.4,351l4.79-2.4a6.56,6.56,0,0,1,5.69,0l5.22,2.57a18.13,18.13,0,0,0,15.89-.06l5.21-2.6a6.56,6.56,0,0,1,5.69,0l5.22,2.56A18.1,18.1,0,0,0,172,351l5.21-2.6a6.53,6.53,0,0,1,5.69,0l5.23,2.57A18.16,18.16,0,0,0,204,350.9l5.2-2.6a6.5,6.5,0,0,1,5.69,0l4.81,2.36ZM127,432.76a2.23,2.23,0,1,1-4.46,0l0-8.78H127Zm19.79-.07a2.23,2.23,0,1,1-4.46,0l0-8.77h4.46Zm19.78-.07a2.23,2.23,0,1,1-4.46,0l0-8.77h4.46Zm19.79-.07a2.23,2.23,0,0,1-4.46,0l0-8.77h4.45Zm19.78-.07a2.23,2.23,0,0,1-4.46,0l0-8.77h4.46Zm-85.53-12.25a2.58,2.58,0,0,1-2.55-2.2l-1.18-8.2a12.08,12.08,0,0,1,2.21.62c4.24,2.08,8.27,4.4,13.18,4.38,4.74,0,8.67-2.24,12.78-4.3a6.72,6.72,0,0,1,6.05-.2l2.59,1.27c3.39,1.67,6.69,3.13,10.59,3.12,4.88,0,8.92-2.37,13.14-4.48a6.5,6.5,0,0,1,5.69,0c4.23,2.07,8.29,4.4,13.18,4.38a18.13,18.13,0,0,0,7.94-1.87l4-2a10.29,10.29,0,0,1,3.39-1.22l-1.13,8.21a2.57,2.57,0,0,1-2.52,2.22Z"/></g><path class="cls-12" d="M320.73,160.06c-.31-85.48-71-154.52-158-154.2S5.55,75.71,5.86,161.18s71,154.51,158,154.2S321,245.53,320.73,160.06Z"/><path class="cls-13" d="M29.27,161.1C29,79.5,93,12.42,174.45,6.24q-5.8-.41-11.71-.38C75.79,6.17,5.55,75.71,5.86,161.18s71,154.51,158,154.2q5.91,0,11.71-.47c-81.51-5.59-146-72.21-146.29-153.81Z"/><path class="cls-4" d="M267.73,84.45a11.94,11.94,0,0,0-18.88-.26c-12.08,15.29-38.64,39.56-85.69,39.73S89.37,100,77.19,84.8a12,12,0,0,0-18.89.4A125.26,125.26,0,0,0,33,161.09c0,1.46,0,2.92.1,4.38A57.63,57.63,0,0,0,87.29,221l1.19.06a7.89,7.89,0,0,1,7.51,7.4c1.07,17.21,9.48,59.19,66.29,59.71h2.95c56.8-.92,64.91-43,65.85-60.19a7.89,7.89,0,0,1,7.46-7.45l1.19-.07a57.39,57.39,0,0,0,53.72-54.83c.07-1.82.1-3.66.1-5.5a125.26,125.26,0,0,0-25.82-75.7Z"/><path class="cls-14" d="M163.63,255.25c-12.58,0-24.32-3-33.06-8.6a19.42,19.42,0,1,1,21-32.71c1.35.87,5.59,2.49,12,2.47s10.62-1.68,12-2.55a19.42,19.42,0,1,1,21.18,32.55c-8.7,5.66-20.41,8.79-33,8.84Z"/><path class="cls-14" d="M131.78,166.25A28.71,28.71,0,1,1,103,137.64a28.71,28.71,0,0,1,28.81,28.61Z"/><path class="cls-14" d="M251.69,165.82a28.71,28.71,0,1,1-28.82-28.61,28.71,28.71,0,0,1,28.82,28.61Z"/><path class="cls-14" d="M165.28,172.46h-3.89a11.65,11.65,0,0,0,.09,23.3h3.88a11.65,11.65,0,0,0-.08-23.3Z"/><path d="M41.44,120.4a5.85,5.85,0,0,0-7.24,4,131.37,131.37,0,0,0-5,41.17A63.28,63.28,0,0,0,88.9,226.76c1.38.07,3.08.18,3.19,2,.53,8.57,3,25.07,13.36,39.22,14.25,19.4,38.68,26.35,61.81,26,26.47-.43,46.16-9.31,58.53-26.4,10.29-14.22,12.61-30.74,13.08-39.32.09-1.78,1.8-1.9,3.17-2a63.06,63.06,0,0,0,59.19-60.45,131.89,131.89,0,0,0-26.9-85c-6.93-9.09-21-9.35-28.13-.35-11,13.94-36.18,37.35-81.12,37.51S94.8,94.89,83.7,81c-7.19-9-21.27-8.59-28.13.55a132.9,132.9,0,0,0-12.48,20.11A5.85,5.85,0,0,0,53.55,107,121,121,0,0,1,64.93,88.61a6.15,6.15,0,0,1,9.63-.26c12.42,15.5,40.71,41.49,90.57,41.31s78-26.36,90.26-42a6.15,6.15,0,0,1,9.63.19,120.76,120.76,0,0,1,24.51,77.41,51.38,51.38,0,0,1-48.24,49.22c-7,.46-14.14,5.32-14.12,13-.39,7.29-2.33,21.29-10.87,33.09-10.09,13.94-26.65,21.19-49.25,21.56-19.45.39-40.12-4.8-52.16-21.2-8.62-11.74-10.66-25.72-11.11-33-.48-7.7-6.92-12.53-14.21-12.94a51.63,51.63,0,0,1-48.64-49.94,119.55,119.55,0,0,1,4.52-37.48,5.85,5.85,0,0,0-4-7.25Z"/><path d="M165.38,201.62a17.51,17.51,0,0,0-.12-35l-3.89,0a17.51,17.51,0,1,0,.13,35Zm-9.74-17.48a5.8,5.8,0,0,1,5.78-5.81l3.88,0a5.8,5.8,0,1,1,0,11.6h-3.88a5.8,5.8,0,0,1-5.82-5.78Z"/><path d="M119.76,216.67a25.3,25.3,0,0,0,7.66,34.91c9.67,6.19,22.54,9.57,36.23,9.52s26.54-3.52,36.17-9.78a25.27,25.27,0,0,0-27.53-42.39s-3,1.61-8.82,1.63-8.79-1.55-8.8-1.55a25.27,25.27,0,0,0-34.91,7.66Zm43.76,5.6c7.23,0,12.67-1.91,15.12-3.51a13.56,13.56,0,1,1,14.79,22.74c-7.76,5.05-18.35,7.85-29.82,7.89s-22.08-2.68-29.88-7.67a13.57,13.57,0,1,1,14.63-22.85c2.47,1.59,7.92,3.42,15.16,3.4Z"/><path d="M103.53,131.79a34.57,34.57,0,1,0,34.68,34.44,34.61,34.61,0,0,0-34.68-34.44Zm.2,57.42a22.86,22.86,0,1,1,22.77-22.94,22.89,22.89,0,0,1-22.77,22.94Z"/><path d="M223.1,200.49a34.57,34.57,0,1,0-34.69-34.44,34.6,34.6,0,0,0,34.69,34.44Zm-.21-57.42A22.86,22.86,0,1,1,200.12,166a22.88,22.88,0,0,1,22.77-22.93Z"/><path d="M226.92,308.49a163.43,163.43,0,0,0,57.73-40.42,5.85,5.85,0,0,0-8.63-7.91c-35.5,38.76-91.18,57-142.72,46.44C64.24,292.94,12,233,11.71,161.16,11.42,79.05,79.18,12,162.76,11.71S314.58,78,314.88,160.07A146.37,146.37,0,0,1,289.56,243a5.86,5.86,0,0,0,1.57,8.13h0a5.86,5.86,0,0,0,8.13-1.56A158,158,0,0,0,326.58,160C326.27,71.47,252.76-.32,162.72,0S-.32,72.64,0,161.2C.24,227.77,41.82,284.85,100.7,309L113,313.45a166.61,166.61,0,0,0,101.64-.32l.12,0Z"/><line class="cls-15" x1="162.61" y1="453.48" x2="162.61" y2="511.7"/><path d="M145.41,492.8h18.92a0,0,0,0,1,0,0v18.9a0,0,0,0,1,0,0H126.5a0,0,0,0,1,0,0v0A18.9,18.9,0,0,1,145.41,492.8Z"/><path d="M162.61,492.8h37.82a0,0,0,0,1,0,0v18.9a0,0,0,0,1,0,0H181.51a18.9,18.9,0,0,1-18.9-18.9v0A0,0,0,0,1,162.61,492.8Z" transform="translate(363.04 1004.5) rotate(-180)"/><rect x="110.45" y="509.49" width="104.32" height="2.45" rx="1.22"/><line class="cls-16" x1="100.46" y1="167.3" x2="116.62" y2="170.3"/><line class="cls-16" x1="210.29" y1="170.3" x2="226.45" y2="167.3"/></g></g></svg>