<svg xmlns="http://www.w3.org/2000/svg" viewBox="0 0 157.36 86.39"><defs><style>.cls-1{fill:#e9e9e9;}</style></defs><title>taza</title><g id="Capa_2" data-name="Capa 2"><g id="personaje-mexicano"><g id="taza"><path class="cls-1" d="M4,4.56A74.73,74.73,0,0,0,153.33,4Z"/><rect class="cls-1" x="55.88" y="73.27" width="46.14" height="9.01" transform="translate(-0.28 0.28) rotate(-0.21)"/><path d="M153.33,0,22.34.47,4,.53a4.06,4.06,0,0,0-4,4A79.79,79.79,0,0,0,59.77,77.22l1.08-7.92-5,0a4.09,4.09,0,0,0-4,4l0,9a4.08,4.08,0,0,0,4,4L102,86.22a4.09,4.09,0,0,0,4-4l0-9a4.1,4.1,0,0,0-4-4l-5,0,1.07,7.92A79.8,79.8,0,0,0,157.36,4c.27-5.18-7.79-5.17-8.06,0A71.57,71.57,0,0,1,95.94,69.32c-4.4,1.15-3.49,7.93,1.07,7.91l5,0-4-4,0,9,4-4-46.14.16,4,4,0-9-4,4,5,0c4.49,0,5.54-6.78,1.07-7.91A71.55,71.55,0,0,1,8.07,4.56l-4,4,131-.46,18.31-.07C158.51,8,158.52,0,153.33,0Z"/></g></g></g></svg>